<?xml version="1.0" encoding="utf-8"?>
<!-- Generator: Adobe Illustrator 24.2.1, SVG Export Plug-In . SVG Version: 6.00 Build 0)  -->
<svg version="1.1" id="Layer_1" xmlns="http://www.w3.org/2000/svg" xmlns:xlink="http://www.w3.org/1999/xlink" x="0px" y="0px"
	 viewBox="0 0 578 206.3" style="enable-background:new 0 0 578 206.3;" xml:space="preserve">
<style type="text/css">
	.st0{display:none;}
	.st1{display:inline;fill:#FFFFFF;}
	.st2{display:inline;}
	.st3{fill:#FFFFFF;}
	.st4{display:inline;fill:none;}
	.st5{font-family:'Poppins-Regular';}
	.st6{font-size:11.0074px;}
	.st7{letter-spacing:6;}
	.st8{font-size:26.2641px;}
	.st9{font-size:14.7432px;}
	.st10{letter-spacing:3;}
	.st11{font-size:18.0328px;}
	.st12{letter-spacing:4;}
	.st13{fill:none;stroke:#000000;stroke-width:2.7611;stroke-miterlimit:10;}
	.st14{display:inline;fill:none;stroke:#000000;stroke-width:0.9173;stroke-miterlimit:10;}
	.st15{display:inline;fill:none;stroke:#000000;stroke-width:0.9221;stroke-miterlimit:10;}
	.st16{fill:none;}
	.st17{display:inline;fill:none;stroke:#000000;stroke-width:3.3984;stroke-miterlimit:10;}
	.st18{display:inline;fill:none;stroke:#000000;stroke-width:2.5123;stroke-miterlimit:10;}
	.st19{fill:none;stroke:#000000;stroke-width:2.5123;stroke-miterlimit:10;}
	.st20{fill:#1D262D;}
</style>
<g id="BACKGROUND" class="st0">
	<rect x="-196.9" class="st1" width="500" height="500"/>
</g>
<g id="OBJECTS" class="st0">
	<g class="st2">
		<g>
			<path d="M-139.5,151.7c0,0.8-0.3,1.5-0.8,2c-0.5,0.5-1.2,0.8-2,0.8h-12.9v-39h12.8c0.8,0,1.5,0.3,2,0.8c0.5,0.5,0.8,1.2,0.8,2
				v11.6c0,1-0.5,1.9-1.4,2.6c-0.9,0.6-1.8,1.1-2.7,1.6l2.9,1.9c0.9,0.5,1.3,1.4,1.3,2.5V151.7z M-143.1,130.3v-11.7h-8.6v14.1h5.1
				L-143.1,130.3z M-143,151.4v-13.5l-3.5-2.3h-5.2v15.8H-143z"/>
			<path d="M-120.1,154.4h-3.3v-0.7c-1.3,0.2-2.6,0.4-3.9,0.5c-1.6,0.2-2.9,0.3-3.9,0.3c-1.8,0-2.7-0.9-2.7-2.7v-8.8
				c0-1.9,0.9-2.8,2.8-2.8h7.8V133h-7.1v4.1h-3.2V133c0-1.9,0.9-2.8,2.8-2.8h8c1.9,0,2.8,0.9,2.8,2.8L-120.1,154.4L-120.1,154.4z
				 M-123.3,151.4v-8.6h-7.4v8.7L-123.3,151.4z"/>
			<path d="M-101.1,154.4h-3.6l-6.7-12.4v12.4h-3.3v-39h3.3v24.8l6.2-10h3.6v0.1l-7.1,10.7L-101.1,154.4z"/>
			<path d="M-84.1,151.6c0,1.9-0.9,2.8-2.8,2.8h-8c-1.9,0-2.8-0.9-2.8-2.8V133c0-1.9,0.9-2.8,2.8-2.8h8c1.9,0,2.8,0.9,2.8,2.8v8.7
				l-1.1,1.2h-9.2v8.8h7.1v-4.4h3.2V151.6z M-87.3,140.3V133h-7.1v7.3H-87.3z"/>
			<path d="M-65.9,138.2h-3.3v-5l-6.1,0.2v21.1h-3.3v-24.2h3.3v0.7c1.1-0.2,2.2-0.3,3.3-0.5c1.3-0.2,2.4-0.3,3.3-0.3
				c1.8,0,2.7,0.9,2.7,2.7V138.2z"/>
			<path d="M-48.1,130.2l-5.8,24l-2.4,9.4h-3.3l2.4-9.4l-6-24h3.4l4.1,19.1l4.2-19.1H-48.1z"/>
		</g>
		<g>
			<path d="M-155.1,163.3v-5.8h3.8v0.5h-3.3v2.1h2.8v0.5h-2.8v2.7L-155.1,163.3L-155.1,163.3z"/>
			<path d="M-146.1,163.3v-5.8h2.5c0.3,0,0.5,0.1,0.7,0.2c0.2,0.1,0.4,0.3,0.5,0.4c0.2,0.2,0.3,0.4,0.4,0.6c0.1,0.2,0.1,0.4,0.1,0.7
				c0,0.2,0,0.4-0.1,0.6s-0.2,0.4-0.3,0.5c-0.1,0.2-0.3,0.3-0.4,0.4s-0.3,0.2-0.5,0.2l1.4,2.3h-0.6l-1.4-2.2h-1.7v2.2L-146.1,163.3
				L-146.1,163.3z M-145.5,160.6h1.9c0.2,0,0.3,0,0.5-0.1c0.1-0.1,0.3-0.2,0.4-0.3c0.1-0.1,0.2-0.3,0.2-0.4c0.1-0.2,0.1-0.3,0.1-0.5
				s0-0.3-0.1-0.5c-0.1-0.2-0.2-0.3-0.3-0.4c-0.1-0.1-0.2-0.2-0.4-0.3c-0.2-0.1-0.3-0.1-0.5-0.1h-1.9V160.6z"/>
			<path d="M-134.3,163.3c-0.4,0-0.8-0.1-1.1-0.3c-0.3-0.2-0.6-0.4-0.9-0.7c-0.2-0.3-0.4-0.6-0.6-0.9s-0.2-0.7-0.2-1.1
				c0-0.4,0.1-0.8,0.2-1.1s0.3-0.7,0.6-0.9c0.3-0.3,0.5-0.5,0.9-0.6c0.3-0.2,0.7-0.2,1.1-0.2c0.4,0,0.8,0.1,1.1,0.3s0.6,0.4,0.9,0.7
				s0.4,0.6,0.6,0.9s0.2,0.7,0.2,1.1c0,0.4-0.1,0.8-0.2,1.1s-0.3,0.7-0.6,0.9c-0.2,0.3-0.5,0.5-0.9,0.6
				C-133.5,163.2-133.9,163.3-134.3,163.3z M-136.4,160.3c0,0.3,0.1,0.6,0.2,0.9c0.1,0.3,0.3,0.6,0.4,0.8c0.2,0.2,0.4,0.4,0.7,0.5
				c0.3,0.1,0.6,0.2,0.9,0.2c0.3,0,0.6-0.1,0.9-0.2s0.5-0.3,0.7-0.6c0.2-0.2,0.3-0.5,0.4-0.8c0.1-0.3,0.1-0.6,0.1-0.9
				c0-0.3-0.1-0.6-0.2-0.9c-0.1-0.3-0.3-0.6-0.4-0.8c-0.2-0.2-0.4-0.4-0.7-0.5c-0.3-0.1-0.6-0.2-0.9-0.2c-0.3,0-0.6,0.1-0.9,0.2
				s-0.5,0.3-0.7,0.6c-0.2,0.2-0.3,0.5-0.4,0.8C-136.4,159.7-136.4,160-136.4,160.3z"/>
			<path d="M-121.1,163.3v-4.8l-2.1,3.7h-0.3l-2.1-3.7v4.8h-0.6v-5.8h0.6l2.3,4l2.3-4h0.6v5.8H-121.1z"/>
			<path d="M-103.6,163.3v-4.8l-2.1,3.7h-0.3l-2.1-3.7v4.8h-0.6v-5.8h0.6l2.3,4l2.3-4h0.6v5.8H-103.6z"/>
			<path d="M-97.4,163.3v-5.8h0.6v5.8H-97.4z"/>
			<path d="M-91.3,163.3v-5.8h2.5c0.3,0,0.5,0.1,0.7,0.2c0.2,0.1,0.4,0.3,0.6,0.4c0.2,0.2,0.3,0.4,0.4,0.6c0.1,0.2,0.1,0.4,0.1,0.7
				c0,0.2,0,0.4-0.1,0.6s-0.2,0.4-0.3,0.5s-0.3,0.3-0.4,0.4s-0.3,0.2-0.5,0.2l1.4,2.3h-0.7l-1.4-2.2h-1.7v2.2L-91.3,163.3
				L-91.3,163.3z M-90.7,160.6h1.9c0.2,0,0.3,0,0.5-0.1c0.1-0.1,0.3-0.2,0.4-0.3s0.2-0.3,0.2-0.4c0.1-0.2,0.1-0.3,0.1-0.5
				s0-0.3-0.1-0.5c-0.1-0.2-0.2-0.3-0.3-0.4c-0.1-0.1-0.2-0.2-0.4-0.3s-0.3-0.1-0.5-0.1h-1.9L-90.7,160.6L-90.7,160.6z"/>
			<path d="M-77.9,162.7v0.5h-3.9v-5.8h3.8v0.5h-3.3v2.1h2.9v0.5h-2.9v2.2L-77.9,162.7L-77.9,162.7z"/>
			<path d="M-70.9,157.4h0.5l2.4,5.8h-0.6l-0.8-1.8h-2.6l-0.8,1.8h-0.6L-70.9,157.4z M-69.4,161l-1.2-2.9l-1.2,2.9H-69.4z"/>
		</g>
		<g>
			<path d="M-32.7,151.6c29.3-28.1,31.3-75.7-0.3-103.2C-63.4,22-108.2,28.2-133,58.7c-1.7,2.1,1.3,5.1,3,3
				c23.3-28.6,65.1-35.2,93.9-10.3c30,25.9,28.1,70.6,0.3,97.2C-37.7,150.5-34.7,153.5-32.7,151.6L-32.7,151.6z"/>
		</g>
		<g>
			<path d="M-75.4,120c-12,0-21.7-9.7-21.7-21.7s9.7-21.7,21.7-21.7s21.7,9.7,21.7,21.7S-63.4,120-75.4,120z M-75.4,80.2
				c-9.9,0-18,8.1-18,18s8.1,18,18,18s18-8.1,18-18C-57.4,88.3-65.4,80.2-75.4,80.2z"/>
		</g>
		<path d="M-133,58.7c0,0-4.7,5.4-1.4,8c3.3,2.6,14.7-5.8,16.2,0s-2.9,14,0.8,17.7c3.7,3.7,11.7-8.6,10.7,6.2
			c-1,14.8,7.4,17.4,12.1,2.7c4.7-14.7,16.9-18.3,26.5-13.4c9.5,4.9,17.9,20.8,8.6,32.6c0,0-1.4,10.5,4.5,9.6
			c5.3-0.8,1.5-8.8,7.4-8.6c6,0.2,0.1,18.7,5.6,19.3c5.5,0.6-0.6-20,5.6-17.8c9.5,3.3-9.6,37.3,2.8,37.3l12.3-19.1l9.6-27.6
			l-0.9-21.8l-8.7-19.7L-36.6,48l-20.3-11.2l-22.2-2.6l-22,4C-101.1,38.2-119.4,42.3-133,58.7z"/>
		<path class="st3" d="M-88.8,49.6L-88.8,49.6c-0.5,0-0.9-0.4-0.9-0.9v-1.8c0-0.5,0.4-0.9,0.9-0.9l0,0c0.5,0,0.9,0.4,0.9,0.9v1.8
			C-88,49.2-88.4,49.6-88.8,49.6z"/>
		<path class="st3" d="M-100.9,57L-100.9,57c-0.5-0.1-0.8-0.6-0.6-1.1l0.4-1.8c0.1-0.5,0.6-0.8,1.1-0.6l0,0c0.5,0.1,0.8,0.6,0.6,1.1
			l-0.4,1.8C-99.9,56.8-100.4,57.1-100.9,57z"/>
		<path class="st3" d="M-73.9,61.7L-73.9,61.7c-0.4,0.2-1,0-1.2-0.4l-0.8-1.7c-0.2-0.4,0-1,0.4-1.2l0,0c0.4-0.2,1,0,1.2,0.4l0.8,1.7
			C-73.3,61-73.5,61.5-73.9,61.7z"/>
		<path class="st3" d="M-20.4,92.6L-20.4,92.6c-0.4,0.2-1,0-1.2-0.4l-0.8-1.7c-0.2-0.4,0-1,0.4-1.2l0,0c0.4-0.2,1,0,1.2,0.4l0.8,1.7
			C-19.8,91.8-20,92.3-20.4,92.6z"/>
		<path class="st3" d="M-65.1,66.5L-65.1,66.5c-0.1,0.5-0.6,0.8-1.1,0.6l-1.8-0.4c-0.5-0.1-0.8-0.6-0.6-1.1l0,0
			c0.1-0.5,0.6-0.8,1.1-0.6l1.8,0.4C-65.3,65.5-65,66-65.1,66.5z"/>
		<path class="st3" d="M-39.4,70.5L-39.4,70.5c-0.1,0.5-0.6,0.8-1.1,0.6l-1.8-0.4c-0.5-0.1-0.8-0.6-0.6-1.1l0,0
			c0.1-0.5,0.6-0.8,1.1-0.6l1.8,0.4C-39.5,69.6-39.2,70.1-39.4,70.5z"/>
		<path class="st3" d="M-80,48.8L-80,48.8c-0.1-0.5,0.2-0.9,0.7-1l1.8-0.3c0.5-0.1,0.9,0.2,1,0.7l0,0c0.1,0.5-0.2,0.9-0.7,1
			l-1.8,0.3C-79.5,49.6-79.9,49.3-80,48.8z"/>
		<path class="st3" d="M-64.3,52L-64.3,52c-0.1-0.5,0.2-0.9,0.7-1l1.8-0.3c0.5-0.1,0.9,0.2,1,0.7l0,0c0.1,0.5-0.2,0.9-0.7,1
			l-1.8,0.3C-63.8,52.8-64.2,52.5-64.3,52z"/>
		<path class="st3" d="M-87,60.9L-87,60.9c0.1-0.5,0.5-0.8,1-0.7l1.8,0.3c0.5,0.1,0.8,0.5,0.7,1l0,0c-0.1,0.5-0.5,0.8-1,0.7
			l-1.8-0.3C-86.7,61.8-87.1,61.4-87,60.9z"/>
		<path class="st3" d="M-31.6,104.9L-31.6,104.9c0.1-0.5,0.5-0.8,1-0.7l1.8,0.3c0.5,0.1,0.8,0.5,0.7,1l0,0c-0.1,0.5-0.5,0.8-1,0.7
			l-1.8-0.3C-31.4,105.8-31.7,105.4-31.6,104.9z"/>
		<path class="st3" d="M-42.9,81.7L-42.9,81.7c0.1-0.5,0.5-0.8,1-0.7l1.8,0.3c0.5,0.1,0.8,0.5,0.7,1l0,0c-0.1,0.5-0.5,0.8-1,0.7
			l-1.8-0.3C-42.6,82.6-43,82.1-42.9,81.7z"/>
		<path class="st3" d="M-56.6,73.8L-56.6,73.8c0.1-0.5,0.5-0.8,1-0.7l1.8,0.3c0.5,0.1,0.8,0.5,0.7,1l0,0c-0.1,0.5-0.5,0.8-1,0.7
			l-1.8-0.3C-56.3,74.8-56.6,74.3-56.6,73.8z"/>
		<path class="st3" d="M-53,61.4L-53,61.4c0.1-0.5,0.5-0.8,1-0.7l1.8,0.3c0.5,0.1,0.8,0.5,0.7,1l0,0c-0.1,0.5-0.5,0.8-1,0.7
			l-1.8-0.3C-52.7,62.3-53.1,61.9-53,61.4z"/>
		<path class="st3" d="M-27.8,78.6L-27.8,78.6c0.1-0.5,0.5-0.8,1-0.7l1.8,0.3c0.5,0.1,0.8,0.5,0.7,1l0,0c-0.1,0.5-0.5,0.8-1,0.7
			l-1.8-0.3C-27.6,79.5-27.9,79.1-27.8,78.6z"/>
		<path class="st3" d="M-110.5,67.1L-110.5,67.1c-0.3-0.4-0.2-0.9,0.2-1.2l1.5-1.1c0.4-0.3,0.9-0.2,1.2,0.2l0,0
			c0.3,0.4,0.2,0.9-0.2,1.2l-1.5,1.1C-109.7,67.6-110.2,67.5-110.5,67.1z"/>
		<path class="st3" d="M-36.4,94.7L-36.4,94.7c-0.3-0.4-0.2-0.9,0.2-1.2l1.5-1.1c0.4-0.3,0.9-0.2,1.2,0.2l0,0
			c0.3,0.4,0.2,0.9-0.2,1.2l-1.5,1.1C-35.5,95.1-36.1,95-36.4,94.7z"/>
		<path class="st3" d="M-50.2,89.3L-50.2,89.3c-0.3-0.4-0.2-0.9,0.2-1.2l1.5-1.1c0.4-0.3,0.9-0.2,1.2,0.2l0,0
			c0.3,0.4,0.2,0.9-0.2,1.2l-1.5,1.1C-49.4,89.8-49.9,89.7-50.2,89.3z"/>
		<path class="st3" d="M-51.8,100.9L-51.8,100.9c-0.3-0.4-0.2-0.9,0.2-1.2l1.5-1.1c0.4-0.3,0.9-0.2,1.2,0.2l0,0
			c0.3,0.4,0.2,0.9-0.2,1.2l-1.5,1.1C-51,101.3-51.6,101.3-51.8,100.9z"/>
		<path class="st3" d="M-95.3,70L-95.3,70c-0.4-0.2-0.6-0.8-0.3-1.2l0.9-1.6c0.2-0.4,0.8-0.6,1.2-0.3l0,0c0.4,0.2,0.6,0.8,0.3,1.2
			l-0.9,1.6C-94.3,70.1-94.8,70.2-95.3,70z"/>
		<path class="st3" d="M-61.4,84.1L-61.4,84.1c-0.4-0.2-0.6-0.8-0.3-1.2l0.9-1.6c0.2-0.4,0.8-0.6,1.2-0.3l0,0
			c0.4,0.2,0.6,0.8,0.3,1.2l-0.9,1.6C-60.4,84.2-61,84.4-61.4,84.1z"/>
		<path class="st3" d="M-70.1,76.3L-70.1,76.3c-0.3,0.4-0.9,0.4-1.2,0.1l-1.4-1.2c-0.4-0.3-0.4-0.9-0.1-1.2l0,0
			c0.3-0.4,0.9-0.4,1.2-0.1l1.4,1.2C-69.8,75.4-69.8,75.9-70.1,76.3z"/>
		<path class="st3" d="M-84.9,78.3L-84.9,78.3c-0.4-0.3-0.5-0.8-0.2-1.2l1.1-1.5c0.3-0.4,0.8-0.5,1.2-0.2l0,0
			c0.4,0.3,0.5,0.8,0.2,1.2l-1.1,1.5C-84,78.5-84.6,78.6-84.9,78.3z"/>
		<path class="st3" d="M-111.7,55.4L-111.7,55.4c-0.1-0.5,0.3-0.9,0.8-1l1.8-0.2c0.5,0,0.9,0.3,1,0.8l0,0c0.1,0.5-0.3,0.9-0.8,1
			l-1.8,0.2C-111.3,56.3-111.7,55.9-111.7,55.4z"/>
		<path class="st3" d="M-98.6,44.3L-98.6,44.3c0.5-0.1,0.9,0.1,1.1,0.6l0.5,1.8c0.1,0.5-0.1,1-0.6,1.1l0,0c-0.5,0.1-0.9-0.1-1.1-0.6
			l-0.5-1.8C-99.3,44.9-99.1,44.4-98.6,44.3z"/>
		<path class="st3" d="M-72.5,35.6c7.3,0.4,27.1,3,41.8,20.5c1,1.2,0.8,3-0.4,4l-1,0.8c-1.2,0.9-2.9,0.8-3.8-0.3
			c-4.4-5-17.1-17.6-36.9-19.3c-1.5-0.1-2.6-1.3-2.6-2.8l0,0C-75.4,36.8-74.1,35.5-72.5,35.6z"/>
		<circle class="st3" cx="-27.4" cy="66.9" r="3.1"/>
		<g>
			<path d="M-140.3,96.9l4.2-1.2c1-0.3,1.6-0.3,1.6-0.2c0.1,0.4-1.9,1.3-6.1,2.7c-1.3,6-1.6,10-1.1,11.9c0.4,1.3,1,1.9,1.8,1.7
				c0.3-0.1,0.7-0.4,1-0.9c0.4-0.5,0.6-0.8,0.7-0.8c0.1,0,0.2,0,0.2,0.2c0,0.6-0.3,1.1-1,1.7s-1.2,0.9-1.7,1s-0.9,0.2-1.2,0.2
				c-0.8-0.1-1.3-0.8-1.7-2.2c-0.8-2.9-0.7-6.9,0.3-12.1l-5.2,1.5c-2.9,4.8-5.8,9.2-9,13.2c-4.7,5.8-8.7,9.2-12,10.1
				c-0.2,0.1-0.4,0.1-0.6,0.1c-4.6,0.8-7.4-0.8-8.6-5.1c-0.7-2.5-0.6-5.3,0.2-8.5c1.1-4.3,3.1-8.2,6-11.8s5.8-5.8,8.7-6.6
				c2.9-0.8,4.6-0.1,5.2,2c0.4,1.4,0.4,3.1,0,5.1c-0.4,2-1,3.3-1.8,4c-0.1,0.1-0.2,0.1-0.3,0.1s-0.2,0-0.2-0.1l0.8-2.7
				c0.6-1.8,0.7-3.3,0.4-4.4c-0.3-1.2-0.8-2-1.5-2.6c-0.7-0.6-1.6-0.7-2.7-0.4c-2.3,0.6-4.6,2.6-7.1,6c-2.5,3.4-4,7.1-4.6,11.2
				c-0.6,4.1-0.7,7.2-0.1,9.3c0.8,3.1,2.8,4.2,6,3.4c3-0.8,6.6-3.9,10.7-9.1c1.8-2.3,4.7-6.6,8.5-12.7c-1,0.3-1.9,0.7-2.7,1.1
				c-1.8,0.8-2.6,1-2.6,0.5c-0.2-1.1,0.2-1.8,1.2-2.1c2-0.3,3.6-0.6,4.9-1c1.9-3,4.6-7.7,8.1-14.3c2.4-4.4,3.9-6.7,4.7-6.9
				c0.3-0.1,0.5,0.1,0.7,0.6c0.1,0.5,0.2,1.3,0.2,2.4c0,1.1-0.1,1.8-0.4,2.2c-0.5,0.6-1,1.4-1.4,2.4c-0.4,0.9-0.8,2.7-1.3,5.1
				C-139.5,93.3-139.9,95.3-140.3,96.9z M-139.7,85.4l-8.3,13.4l2.6-0.7c0.6-0.1,1.4-0.3,2.3-0.6C-142.8,95.7-141.6,91.6-139.7,85.4
				z"/>
			<path d="M-113.1,102.3c-2,0.5-3.2-0.1-3.7-1.9c-0.3-1-0.2-2.6,0.2-4.7c0.4-2.1,1-3.8,1.7-5.4c-1.6,1.4-3.2,3.5-4.9,6.4
				s-2.7,5.7-3,8.5c-0.1,0.3-0.3,0.4-0.6,0.6c-0.7,0.2-1.2-0.1-1.4-0.9c-0.1-1.7,0-3.7,0.5-6c0.1-0.8,0.6-2.9,1.3-6.6
				c-1.9,2.1-3.3,4.2-4.5,6.3c-1.1,2.1-2.1,4.2-3,6.3c-0.9,2.1-1.4,3.1-1.6,3.2c-0.4,0.1-0.8,0-1.1-0.3c-0.4-0.3-0.6-0.6-0.7-0.9
				c-0.1-0.5,0.1-2.6,0.7-6.3l-1.9,3.4c-0.5,0.8-0.8,1.2-0.9,1.3c-0.2,0-0.3,0-0.3-0.2c-0.1-0.2,0-0.4,0.2-0.7c0.8-1.4,1.5-2.7,2-4
				c0.6-1.3,1.4-3.6,2.6-6.9c0.2-0.5,0.6-0.9,1.2-1c0.6-0.2,0.9,0,1.1,0.6c0.1,0.2-0.3,1.8-1.2,4.9c-0.8,3-1.2,4.9-1.2,5.6
				c0.8-1.6,2.1-3.9,3.9-6.7c2.7-4.3,4.6-6.6,5.7-6.9c0.3-0.1,0.7-0.1,1,0.1c0.3,0.1,0.6,0.3,0.6,0.6s-0.2,1.5-0.8,3.7
				c-0.6,2.3-0.8,3.7-0.9,4.1c2.5-3.6,3.7-5.4,3.7-5.4c2.2-2.8,3.8-4.4,5-4.8c0.3-0.1,0.7-0.1,1.1,0.1c0.4,0.1,0.6,0.3,0.7,0.6
				c0,0.1-0.6,1.5-1.8,4.4s-1.8,5.2-1.6,6.7c0.1,0.5,0.3,0.9,0.6,1.1c0.3,0.2,0.8,0.2,1.5,0s1.6-0.9,2.6-2.2c1.1-1.3,2.1-2.9,3-4.9
				c0.4-0.7,0.6-1.1,0.8-1.2s0.3,0,0.3,0.1c0.1,0.2,0,0.5-0.2,0.8c-1,2.1-2.1,4-3.4,5.6C-111.1,101.1-112.2,102.1-113.1,102.3z"/>
		</g>
	</g>
	<g>
		<rect x="114.8" y="205.9" class="st4" width="133.5" height="13.2"/>
		<text transform="matrix(1 0 0 1 117.7203 214.0498)" class="st2 st5 st6 st7">since 1954</text>
		<g class="st2">
			<text transform="matrix(1 0 0 1 119.0406 176.3984)" class="st5 st8 st7">Bread</text>
			<text transform="matrix(0 -1 1 0 247.4976 196.04)" class="st5 st9 st10">and</text>
			<text transform="matrix(1 0 0 1 121.3588 198.1563)" class="st5 st11 st12">cookies</text>
		</g>
		<g class="st2">
			<g>
				<g>
					<g>
						<path d="M205.1,102.2c3-0.5,6.1-1,9.1-1.4c2.1-0.3,4.3-0.6,6.3-0.9c0.8-0.1,1.7-0.2,2.5-0.3c0.3,0,0.5,0,0.8-0.1
							c0.1,0,0.2,0,0.3,0c0.1,0,0.1,0,0,0c0.4,0.1,0.2,0-0.6-0.5c-0.1-0.3-0.1-0.6-0.2-0.8c0,0.1,0.1-0.3,0.1-0.3
							c-0.1,0-0.2,0.3-0.3,0.4c-0.3,0.4-0.6,0.8-0.8,1.2c-0.7,1.2-1,2.4-0.7,3.7c0.3,1.6,1,3.2,1.7,4.7c2,4.2,5.3,8.5,9.9,9.9
							c0.6,0.2,1.2,0.3,1.8,0.4c0.2,0,1-0.1,0.3,0c0.3,0,0.2,0,0.2,0c0,0.1-0.4-0.4-0.5-0.5c0,0,0,0.1,0,0.1c0,0.1,0.1-0.5,0-0.1
							c-0.2,0.8-0.5,1.6-0.8,2.4c-0.1,0.3,0.1-0.2,0,0.1c-0.1,0.2-0.1,0.3-0.2,0.4c-0.1,0.3-0.3,0.6-0.5,0.9
							c-0.4,0.7-0.7,1.3-1.2,1.9c-1,1.4-2.1,2.7-3.4,3.9c-4.4,4.1-10,6.3-15.7,7.5c-2.1,0.4-1.2,3.7,0.9,3.3c7.5-1.6,14.8-5,19.7-11
							c1.5-1.8,2.7-3.8,3.6-6c0.5-1.1,0.9-2.3,1-3.5c0-1-0.5-2-1.4-2.5c-0.7-0.4-1.4-0.3-2.2-0.3c0.7,0-0.1-0.1-0.5-0.2
							c-0.4-0.1-0.7-0.2-1-0.4c-0.8-0.3-1.5-0.8-2.1-1.3c-2.5-2-4.3-5-5.5-7.9c-0.2-0.6-0.4-1.1-0.6-1.7c-0.1-0.5-0.3-0.9-0.2-1.2
							c0.3-1.4,1.8-2.3,1.9-3.8c0.1-3-4.1-2.1-5.9-1.9c-5.6,0.7-11.1,1.6-16.6,2.4C202.1,99.3,202.9,102.6,205.1,102.2L205.1,102.2z
							"/>
					</g>
					<g>
						<path d="M164,103.6c-0.8-0.1-0.4,0-0.2,0c0,0-0.4-0.2-0.1-0.1c0.2,0.1,0.3,0.2,0,0c0.1,0.1,0.2,0.2,0.3,0.3
							c-0.2-0.3,0,0,0.1,0.2c0.2,0.3,0.3,0.6,0.4,1.1c0.5,2.3,0,4.7-0.5,7c-1.1,5.4-2.7,10.9-5.4,15.8c-1.1,1.9-2.4,4.1-4.1,5.4
							c-0.7,0.5-1.1,0.8-1.3,1.6c-0.2,0.7-0.2,1.5-0.1,2.2c0.6,4.5,5.4,6.8,9.3,7.9c4.2,1.3,8.5,2,12.9,2.5c5.5,0.7,11,0.9,16.5,0.5
							c5.5-0.4,11.1-1.3,16.3-3.5c2.2-0.9,4.7-2.1,6.5-3.8c0.8-0.8,1-2.3,1.1-3.4c0-1.2-0.3-2.3-0.9-3.3c-5.4-9-10.6-19.2-10-30
							c0-0.4,0-0.8,0.1-1.1c0-0.2,0-0.5,0-0.4c0-0.2-0.1-0.1,0.1-0.2c-0.1,0-0.1,0,0,0c0.9,0,1.6-0.8,1.7-1.7
							c0.1-1.7-1.7-2.8-3.1-3.2c-2.9-0.8-6.3-0.2-9.2,0.1c-4,0.4-7.9,0.7-11.9,0.9c-4.5,0.2-9.1,0-13.6,0.1
							c-2.4,0.1-6.7,0.3-6.1,3.8c0.1,0.9,1.3,1.4,2.1,1.2c1-0.3,1.3-1.2,1.2-2.1c0,0.3,0,0.5-0.2,0.8c0,0.1-0.2,0.1,0,0.1
							c0.3,0-0.2,0,0.1-0.1c0.2-0.1,0.5-0.1,0.7-0.2c1.3-0.2,2.6-0.2,4-0.2c3.9,0.1,7.8,0.1,11.7-0.1c3.5-0.2,6.9-0.5,10.4-0.8
							c2.6-0.2,5.2-0.6,7.7-0.6c0.7,0,1.4,0,2.1,0.2c0.6,0.2,0.6,0.2,1,0.4c0,0-0.3-0.1-0.1-0.1c0.2,0.1-0.1,0.3,0-0.1
							c0,0,0.2,0.5,0,0.1c0,0-0.1-0.2-0.1-0.3c0.6-0.6,1.1-1.1,1.7-1.7c-3.4,0.1-3.6,3.5-3.6,6.1c0,3.4,0.5,6.8,1.3,10.1
							c1.5,5.7,3.9,11.2,6.7,16.4c0.8,1.4,1.6,2.8,2.5,4.2c0.5,0.8,0.6,1.5,0.4,2.4c0,0.2-0.1,0.4-0.2,0.7c-0.1,0.3,0.1,0.2,0-0.1
							c0-0.4,0.2-0.2-0.1-0.1c-0.5,0.2-1,0.7-1.4,1c-4.4,2.8-9.5,4.1-14.6,4.8c-10,1.3-20.6,0.5-30.4-2c-1.5-0.4-3-0.8-4.4-1.4
							c-0.3-0.1,0.3,0.1-0.1,0c-0.1-0.1-0.2-0.1-0.3-0.1c-0.8-0.4-1.5-0.8-2.2-1.3c-0.8-0.6-1.6-1.6-1.8-2.4c0-0.1-0.1-0.7-0.1-0.3
							c0-0.2,0-0.3,0-0.5c0-0.2,0.1-0.4,0-0.1c0-0.1,0-0.2,0.1-0.4c0.1-0.4,0.1-0.2,0,0c-0.2,0.3-0.6,0.6-0.1,0.3
							c0.3-0.2,0.6-0.4,0.8-0.6c1.9-1.6,3.4-3.9,4.6-6.1c2.7-5,4.4-10.6,5.6-16.1c0.5-2.4,1-5.1,0.7-7.6c-0.2-1.9-0.8-4-2.6-5
							c-0.5-0.3-0.9-0.3-1.4-0.4c-0.9-0.1-1.7,0.8-1.7,1.7C162.3,102.9,163.1,103.4,164,103.6z"/>
					</g>
					<g>
						<path d="M225.8,99.6c2.2-1.5,4.3-3.2,6.2-5.1c1.4-1.4,2.7-2.9,3.6-4.6c0.4-0.7,0.6-1.4,0.9-1.9c0-0.1,0.2-0.3,0,0
							c0.1-0.1,0.2-0.2,0.3-0.3c0.2-0.2-0.3,0.2,0.1-0.1c0.1-0.1,0.4-0.2,0.1-0.1c0.8-0.3,1.4-0.2,2.3,0.3c1,0.6,1.7,1.6,2.2,2.7
							c0.7,1.7,0.7,3.6,0.5,5.5c-0.3,2.6-0.8,5.2-1.5,7.8c-1,4.1-2.2,8.8-5.2,11.9c-1.5,1.6,0.9,4,2.4,2.4c3-3.1,4.5-7.6,5.6-11.7
							c0.8-2.8,1.3-5.7,1.8-8.6c0.4-2.5,0.6-4.9,0-7.3c-0.9-3.2-3.4-6.3-6.9-6.6c-1.4-0.1-2.8,0.3-3.8,1.3c-1.2,1.1-1.6,2.9-2.5,4.2
							c-2,2.8-5,5.2-7.7,7.1C222.4,97.9,224.1,100.9,225.8,99.6L225.8,99.6z"/>
					</g>
					<g>
						<path d="M164.5,100.1c-4.7-0.8-9.5-1.6-14.2-2.3c-1.3-0.2-2.7-0.4-4-0.5c-0.9-0.1-1.9-0.2-2.7,0c-2,0.6-1.7,2.5-0.8,3.8
							c0.8,1.1,1.2,1.9,0.9,3c-0.8,2.7-2.3,5.4-4.1,7.6c-1.1,1.3-2.3,2.5-3.9,3.2c-0.7,0.4-1.5,0.5-2.3,0.7
							c-0.2,0.1,0.5,0.1,0.3,0.1c-0.2,0-0.4-0.1-0.6-0.1c-0.4,0-0.8,0-1.1,0.2c-4.3,1.4-0.2,8.1,1.2,10.1
							c4.9,6.9,12.8,10.7,20.8,12.5c2.1,0.5,3-2.8,0.9-3.2c-8.3-1.8-16.8-6-20.6-13.9c-0.1-0.2-0.2-0.5-0.3-0.7
							c0.2,0.4-0.1-0.3-0.2-0.4c-0.1-0.4-0.3-0.8-0.4-1.2c0-0.1,0-0.3-0.1-0.4c-0.1-0.3-0.1,0.3,0,0.1c0.1-0.2-0.7,0.7-0.5,0.4
							c0,0.1,0.3,0.1,0,0c-0.4-0.1,0.7,0,0.8,0c4.9-0.7,8.5-4.7,10.8-8.8c1-1.8,1.9-3.7,2.4-5.7c0.3-1.3,0.1-2.5-0.4-3.7
							c-0.2-0.5-0.5-1-0.9-1.4c-0.1-0.2-0.3-0.5-0.4-0.6c-0.2-0.1,0,0,0,0c0.1,0,0,0.5,0.1,0.3c-0.1,0.3-0.2,0.6-0.2,0.8
							c-0.8,0.4-1,0.6-0.6,0.5c-0.1,0-0.1,0,0,0c0.1,0,0.2,0,0.3,0c0.3,0,0.5,0,0.8,0.1c0.8,0.1,1.7,0.2,2.5,0.3
							c2,0.3,4.2,0.6,6.3,0.9c3,0.5,6.1,1,9.1,1.5C165.7,103.7,166.7,100.5,164.5,100.1L164.5,100.1z"/>
					</g>
					<g>
						<path d="M144.6,98.3c0.7,0.6-0.1-0.1-0.3-0.3c-0.6-0.5-1.1-1-1.7-1.5c-1.5-1.4-3-2.8-4.4-4.4c-0.6-0.7-1.2-1.5-1.7-2.3
							c-0.4-0.7-0.7-1.5-1.1-2.3c-0.7-1.3-1.9-2.2-3.3-2.5c-3.3-0.6-6.3,1.8-7.6,4.7c-1,2-1.3,4.3-1.1,6.5c0.2,3,0.8,6.1,1.5,9
							c1.1,4.8,2.6,10.2,6,13.8c1.5,1.6,3.9-0.8,2.4-2.4c-2.5-2.7-3.7-6.7-4.6-10.2c-0.7-2.6-1.2-5.3-1.6-7.9
							c-0.3-2.1-0.6-4.2,0-6.3c0.4-1.2,1.1-2.5,2-3.2c0.5-0.4,1-0.6,1.3-0.7c0.1,0,0.2-0.1,0.3-0.1c0.5-0.1-0.3,0,0.2,0
							c0.1,0,0.2,0,0.3,0c0.1,0,0.2,0,0.3,0c-0.2,0-0.2,0-0.1,0c0.1,0,0.7,0.2,0.4,0.1c0.1,0.1,0.3,0.1,0.4,0.2c-0.2-0.2,0,0,0,0
							c0.4,0.3,0.5,0.7,0.8,1.5c0.8,1.7,2,3.3,3.2,4.7c2,2.3,4.4,4.5,6.8,6.4c0.7,0.6,1.9,0.1,2.3-0.6
							C145.7,99.7,145.3,98.8,144.6,98.3L144.6,98.3z"/>
					</g>
				</g>
			</g>
			<path class="st13" d="M143.4,98.3c0-11.3,9.1-20.4,20.4-20.4c11.3,0,20.4,9.1,20.4,20.4"/>
			<path class="st13" d="M163,76.7c0-11.3,9.1-20.4,20.4-20.4c11.3,0,20.4,9.1,20.4,20.4"/>
			<path class="st13" d="M184.1,98.3c0-11.3,9.1-20.4,20.4-20.4c11.3,0,20.4,9.1,20.4,20.4"/>
			<path d="M163.7,83.3c0,0.9-0.7,1.7-1.6,1.7s-1.6-0.7-1.6-1.7s0.7-1.7,1.6-1.7C163,81.6,163.7,82.4,163.7,83.3z"/>
			<path d="M166.8,88.1c0,0.4,0.3,0.8,0.8,0.8s0.8-0.3,0.8-0.8s-0.3-0.8-0.8-0.8S166.8,87.7,166.8,88.1z"/>
			<path d="M160,90.3c0,0.3,0.3,0.6,0.6,0.6c0.3,0,0.6-0.3,0.6-0.6s-0.3-0.6-0.6-0.6C160.2,89.7,160,89.9,160,90.3z"/>
			<path d="M171.6,95.9c0,0.2,0.1,0.3,0.3,0.3s0.3-0.2,0.3-0.3c0-0.2-0.1-0.3-0.3-0.3S171.6,95.7,171.6,95.9z"/>
			<path d="M152.3,91.3c0,0.3,0.2,0.5,0.5,0.5s0.5-0.2,0.5-0.5s-0.2-0.5-0.5-0.5S152.3,91.1,152.3,91.3z"/>
			<path d="M158,97.5c0,0.7,0.6,1.3,1.3,1.3c0.7,0,1.3-0.6,1.3-1.3s-0.6-1.3-1.3-1.3C158.6,96.2,158,96.8,158,97.5z"/>
			<circle cx="180.2" cy="62" r="1.2"/>
			<path d="M173,67.7c0,0.6,0.5,1.2,1.1,1.2c0.6,0,1.1-0.5,1.1-1.2s-0.5-1.2-1.1-1.2C173.5,66.5,173,67,173,67.7z"/>
			<path d="M188.9,70.4c0,0.6,0.5,1.1,1.1,1.1s1.1-0.5,1.1-1.1s-0.5-1.1-1.1-1.1S188.9,69.8,188.9,70.4z"/>
			<path d="M180.9,73.6c0,0.3,0.3,0.6,0.6,0.6s0.6-0.3,0.6-0.6s-0.3-0.6-0.6-0.6S180.9,73.3,180.9,73.6z"/>
			<path d="M185.2,80.2c0,0.7,0.6,1.3,1.3,1.3s1.3-0.6,1.3-1.3s-0.6-1.3-1.3-1.3C185.8,78.9,185.2,79.5,185.2,80.2z"/>
			<circle cx="171.8" cy="73.4" r="0.4"/>
			<path d="M194.2,73.1c0,0.9,0.7,1.6,1.5,1.6c0.9,0,1.5-0.7,1.5-1.6c0-0.9-0.7-1.6-1.5-1.6C194.8,71.5,194.2,72.2,194.2,73.1z"/>
			<path d="M200.5,85.7c0,0.4,0.3,0.8,0.8,0.8s0.8-0.3,0.8-0.8c0-0.4-0.3-0.8-0.8-0.8C200.8,84.9,200.5,85.3,200.5,85.7z"/>
			<path d="M192.5,89.3c0,0.2,0.2,0.4,0.4,0.4s0.4-0.2,0.4-0.4s-0.2-0.4-0.4-0.4C192.7,88.9,192.5,89.1,192.5,89.3z"/>
			<path d="M203.8,91.7c0,0.5,0.4,0.9,0.9,0.9s0.9-0.4,0.9-0.9c0-0.5-0.4-0.9-0.9-0.9S203.8,91.2,203.8,91.7z"/>
			<path d="M207.7,84.9c0,0.4,0.4,0.8,0.8,0.8s0.8-0.4,0.8-0.8s-0.4-0.8-0.8-0.8S207.7,84.4,207.7,84.9z"/>
			<path d="M211.9,91.7c0,0.5,0.4,0.9,0.9,0.9s0.9-0.4,0.9-0.9c0-0.5-0.4-0.9-0.9-0.9S211.9,91.2,211.9,91.7z"/>
			<path d="M195.7,94.3c0,0.4,0.4,0.8,0.8,0.8s0.8-0.3,0.8-0.8s-0.4-0.8-0.8-0.8S195.7,93.8,195.7,94.3z"/>
		</g>
	</g>
	<g>
		<g class="st2">
			<text transform="matrix(1 0 0 1 121.8248 395.2988)" style="font-family:'ArialMT'; font-size:48.2038px;">Bakery</text>
			<g>
				<g>
					<path d="M220.1,268.9l-1.7,1.6c-7.4-7.6-15.8-4-15.9-4l-0.9-2.1C201.7,264.3,211.7,260.1,220.1,268.9z"/>
				</g>
				<g>
					<path d="M163.2,337.5c-0.1,0-10.6-2.5-12.4-14.5l2.3-0.3c1.5,10.4,10.2,12.5,10.6,12.5L163.2,337.5z"/>
				</g>
				<g>
					<path d="M233.1,318.1l-26.6,26.6c-1.4,1.4-3.2,2-5.1,1.7c-1.9-0.3-3.4-1.3-4.4-3c-2.1-3.7-5.1-6.7-8.8-8.7
						c-2.9,4-6.8,6.9-11.6,8.5c-8.1,2.8-17.1,1.3-23.5-3.9c-5.5-4.5-8.7-10.8-9-17.8c-0.3-6.4,1.9-12.8,6.2-17.5
						c-8.7-12-7.5-28.6,3.1-39.2c10.6-10.6,27.3-11.8,39.3-3c9.6-7.6,23.6-6.9,32.4,1.9c9.5,9.5,9.5,25,0,34.5
						c-0.5,0.5-1.2,1.1-1.8,1.6c2,3.7,5,6.6,8.6,8.6c1.6,0.9,2.7,2.5,3,4.4C235.1,314.9,234.5,316.7,233.1,318.1z M187,330.2
						l1.4,0.7c5.1,2.4,9,6,11.7,10.9c0.4,0.6,1,1.1,1.8,1.2c0.8,0.1,1.6-0.1,2.1-0.7l26.6-26.6c0.6-0.6,0.8-1.3,0.7-2.1
						c-0.1-0.8-0.5-1.4-1.2-1.8c-4.7-2.7-8.3-6.5-10.7-11.4l-0.6-1.3l1.2-0.9c1-0.7,1.9-1.5,2.6-2.2c8.1-8.1,8.1-21.4,0-29.6
						c-7.8-7.8-20.4-8.2-28.7-0.8l-1.1,1l-1.2-0.9c-10.7-8.6-26-7.8-35.8,1.9c-9.7,9.7-10.5,25-1.9,35.7l1,1.2l-1.1,1.1c0,0,0,0,0,0
						c-4.3,4.3-6.5,10.1-6.2,16c0.3,6,3.1,11.4,7.8,15.2c5.5,4.4,13.2,5.7,20.2,3.3c4.6-1.6,8.1-4.3,10.6-8.4L187,330.2z"/>
				</g>
				<g>
					<path d="M188.8,333.7l-2.7-2.3l1.3,1.1l-1.3-1.1c0-0.1,4.8-5.7,5.8-15.9l3.5,0.4C194.2,327.2,189,333.5,188.8,333.7z"/>
				</g>
				<g>
					<path d="M221.7,301.1c-0.1,0-12.3,5.2-18,16.7l-3.1-1.6c6.3-12.8,19.3-18.2,19.9-18.4L221.7,301.1z"/>
				</g>
				<g>
					<rect x="199.7" y="326.8" transform="matrix(0.7071 -0.7071 0.7071 0.7071 -175.5684 239.6349)" width="3.5" height="9.9"/>
				</g>
				<g>
					<rect x="208.6" y="317.9" transform="matrix(0.7071 -0.7071 0.7071 0.7071 -166.7156 243.3009)" width="3.5" height="9.9"/>
				</g>
				<g>
					<rect x="217.3" y="309.2" transform="matrix(0.7071 -0.7071 0.7071 0.7071 -157.9893 246.9175)" width="3.5" height="9.9"/>
				</g>
				<g>
					<path d="M162.3,308.2c-5.2-3.4-9.1-2.4-9.2-2.3l-1-3.4c0.2-0.1,5.5-1.5,12.1,2.8L162.3,308.2z"/>
				</g>
				<g>
					<path d="M194.8,275.5l-2.8,2.2c-4.5-5.8-1.1-13.9-0.9-14.2l3.2,1.4C194.3,264.9,191.6,271.4,194.8,275.5z"/>
				</g>
				<g>
					<path d="M155.8,292.5l-2.3,0.6c-0.2-0.6-4-14,6.4-22.9l1.5,1.8C152.3,279.9,155.8,292.4,155.8,292.5z"/>
				</g>
				<g>
					<circle cx="165.3" cy="267.5" r="1.6"/>
				</g>
				<g>
					<path d="M223.4,272.4c0.6,0.6,0.6,1.6,0,2.2c-0.6,0.6-1.6,0.6-2.2,0c-0.6-0.6-0.6-1.6,0-2.2
						C221.8,271.8,222.8,271.8,223.4,272.4z"/>
				</g>
				<g>
					<path d="M150.2,318.2c-0.1-0.9,0.4-1.7,1.3-1.8c0.9-0.1,1.7,0.4,1.8,1.3c0.1,0.9-0.4,1.7-1.3,1.8
						C151.2,319.6,150.3,319,150.2,318.2z"/>
				</g>
			</g>
			<text transform="matrix(1 0 0 1 125.695 411.709)" class="st5" style="font-size:8.034px;">homemade cooking</text>
		</g>
		<polygon class="st14" points="119.9,396.3 104.1,396.3 110.7,403 103.8,409.9 115.8,409.9 115.8,399.9 119.9,399.9 		"/>
		<polyline class="st15" points="236.2,416.8 115.8,416.8 115.8,399.9 236.2,399.9 		"/>
		<polygon class="st2" points="115.3,399.5 119.9,396.3 119.9,399.5 		"/>
	</g>
	<g>
		<g class="st2">
			<g>
				<polygon class="st16" points="26.5,356.2 -74.8,389.1 -89.7,343.9 11.6,311.1 				"/>
				
					<text transform="matrix(0.9591 -0.3108 0.3139 0.9495 -75.0674 369.3701)" style="font-family:'ArialMT'; font-size:40.3874px;">Baker</text>
				
					<text transform="matrix(0.9591 -0.3108 0.3139 0.9495 -73.0108 381.1926)" style="font-family:'Poppins-Light'; font-size:7.4661px;">coffee &amp; bread</text>
			</g>
			<g>
				<g>
					<g>
						<g>
							<path d="M-91.6,397.8c-1.3,0.4-5.3,1.2-9.9-2.5c-3.3,0.3-10.2-0.6-15.5-10.9c-2.2,1.7-4.3,3.6-6.3,5.8l0,0
								c-5.1,5.5-14.5,10.1-22.3,8.3c-3.6-0.8-8.3-3.3-10.5-10.6c-1.8-6-1.5-10.9,1-14.5c4.5-6.5,15-7.1,21.9-7.5
								c1.2-0.1,2.4-0.1,3.3-0.3c2.2-0.2,4.8-0.7,7.4-1.3c-0.9-11.4,3.7-15.6,6.3-17c1.7-6.8,6-7.5,6.2-7.5l137.9-44.7
								c0,0,3.9-2,9.4,2.6c3.3-0.3,9.1,1,14.8,10.3c1.5-1.3,3-2.7,4.4-4.2c5.1-5.5,14.4-10.1,22.4-8.3c3.6,0.8,8.3,3.3,10.5,10.6
								c1.8,6,1.5,10.9-1,14.5c-4.5,6.5-15,7.1-21.9,7.5c-1.2,0.1-2.4,0.1-3.3,0.3c-1,0.1-2.2,0.3-3.4,0.5c1.2,9.6-2.8,14.1-5.7,16
								c-1.8,7.1-6.9,8.1-7.2,8.2l-56.7,18.4l-12.2,3.9l-13.5,4.4v0l-55.6,18C-91.2,397.6-91.3,397.7-91.6,397.8z M-116,380.3
								l0.7,1.5c4.8,10.5,10.8,11.3,14,10.8l0.6-0.1l0.5,0.4c4.5,3.8,7.9,2.3,8.1,2.3l58.3-18.9l10.9-3.5l11-3.6l1.1-0.4l56.9-18.4
								c0.3-0.1,4-0.9,5.3-6.7l0.1-0.6l0.5-0.3c2.4-1.4,6.3-5.3,4.8-14.9l-0.2-1.3l1.3-0.2c1.7-0.3,3.4-0.6,4.9-0.7
								c1-0.1,2.2-0.2,3.4-0.3c6.4-0.4,16-1,19.8-6.4c2-2.9,2.2-7,0.7-12.2c-1.5-4.9-4.4-7.8-8.5-8.8c-6-1.4-14.5,1.9-19.8,7.5
								c-1.9,2-3.9,3.9-5.9,5.5l-1.2,1l-0.8-1.4c-5.8-10.2-11.4-10.6-13.5-10.3l-0.6,0.1l-0.5-0.4c-4.2-3.8-6.9-2.6-7.1-2.5
								l-138.3,44.8c-0.3,0.1-3.2,0.7-4.3,6.1l-0.1,0.7l-0.6,0.3c-2,0.9-6.5,4.1-5.2,15.7l0.1,1.1l-1.1,0.3
								c-3.2,0.8-6.3,1.4-8.9,1.6c-1,0.1-2.2,0.2-3.4,0.3c-6.4,0.4-16,1-19.8,6.4c-2,2.9-2.2,7-0.7,12.2c1.5,4.9,4.3,7.8,8.5,8.8
								c6.9,1.6,15.2-2.6,19.8-7.5l0,0c2.5-2.7,5.3-5.1,8.1-7.1L-116,380.3z"/>
						</g>
					</g>
				</g>
				<g>
					<path d="M-102.3,394.5c-15-28.1-14.2-45.6-14.1-46.4l2.7,0.1c0,0.2-0.7,17.6,13.8,45L-102.3,394.5z"/>
				</g>
				<g>
					<path d="M-117.8,382.9c-4.5-9.6-4.7-17.2-4.7-17.5l2.7-0.1c0,0.1,0.2,7.5,4.4,16.5L-117.8,382.9z"/>
				</g>
				<g>
					<path d="M53.8,344.8l-2.7,0.4c-4.6-30.8-15.4-45.1-15.5-45.3l2.1-1.6C38.3,298.9,49.1,313.4,53.8,344.8z"/>
				</g>
				<g>
					<path d="M59.4,326.7l-2.6,0.5c-2-9.8-5.8-15.8-5.9-15.9l2.3-1.4C53.4,310.2,57.3,316.4,59.4,326.7z"/>
				</g>
				<g>
					<path d="M-150.3,383.2l-2.6,0.6c0-0.2-1-4.1,1.4-7.7c1.8-2.7,4.9-4.5,9.2-5.3l0.5,2.6c-3.6,0.6-6.1,2-7.5,4.1
						C-151,380.1-150.3,383.1-150.3,383.2z"/>
				</g>
				<g>
					<path d="M-137.2,371.1c0.3,0.9-0.2,1.8-1.1,2.1c-0.9,0.3-1.8-0.2-2.1-1.1c-0.3-0.9,0.2-1.8,1.1-2.1S-137.5,370.2-137.2,371.1z"
						/>
				</g>
				<g>
					<path d="M77.5,322c-4.5,1.4-9.2,1.6-9.5,1.6l-0.1-2.7c3.1-0.1,11.8-1.1,14.1-4.9l2.3,1.4C82.9,319.7,80.3,321.1,77.5,322z"/>
				</g>
				<g>
					<path d="M85.8,312.9c0.3,0.8-0.2,1.7-1,2c-0.8,0.3-1.7-0.2-2-1s0.2-1.7,1-2C84.7,311.6,85.6,312,85.8,312.9z"/>
				</g>
				<g>
					<path d="M-101.2,381c-12-28.7-6.4-34.8-5.7-35.4l1.8,2l-0.9-1l0.9,0.9c-0.1,0-4.8,5.7,6.4,32.5L-101.2,381z"/>
				</g>
				<g>
					<path d="M-101.5,343.8c0.2,0.7-0.2,1.5-0.9,1.8c-0.7,0.2-1.5-0.2-1.8-0.9c-0.2-0.7,0.2-1.5,0.9-1.8S-101.7,343.1-101.5,343.8z"
						/>
				</g>
				<g>
					<path d="M43.8,346.9l-1.8-2l0.9,1l-0.9-0.9c0.1,0,4.8-5.7-6.4-32.5l2.5-1C50,340.2,44.5,346.3,43.8,346.9z"/>
				</g>
				<g>
					<path d="M38.3,348.6c-0.2-0.7,0.2-1.5,0.9-1.8c0.7-0.2,1.5,0.2,1.8,0.9c0.2,0.7-0.2,1.5-0.9,1.8S38.6,349.4,38.3,348.6z"/>
				</g>
			</g>
		</g>
		<path class="st17" d="M37.3,355.6C32,390.5,1.7,417.2-35,417.2c-20.9,0-39.8-8.7-53.2-22.7"/>
		<path class="st17" d="M-108.1,340.5c2.2-38,34.1-68.2,73-68.2c22.6,0,42.7,10.1,56.1,26"/>
		<path class="st18" d="M-94.1,325.8c0,0,8.8-29.4,40.4-40.9"/>
		<path class="st2" d="M-47.4,283.3c0,0.9-0.7,1.6-1.6,1.6s-1.6-0.7-1.6-1.6s0.7-1.6,1.6-1.6S-47.4,282.4-47.4,283.3z"/>
		<g class="st2">
			<path class="st19" d="M19.6,377.4c0,0-15.7,26.4-49.1,30.1"/>
			<path d="M-36,407.6c0.2-0.9,1.1-1.4,2-1.2c0.9,0.2,1.4,1.1,1.2,2c-0.2,0.9-1.1,1.4-2,1.2C-35.7,409.3-36.2,408.4-36,407.6z"/>
		</g>
	</g>
</g>
<g id="DESIGNED_BY_FREEPIK" class="st0">
	<g class="st2">
		<g id="XMLID_319_">
			<g id="XMLID_338_">
				<path id="XMLID_346_" class="st20" d="M63.2,465.5c-0.4,0.4-0.8,0.9-1.1,1.5l-0.5-0.2c-0.1-0.3-0.4-0.5-0.7-0.5
					c-0.3,0-0.6,0.3-0.5,0.7c0,0.3,0.3,0.6,0.7,0.5c0.1,0,0.1,0,0.2,0l0.5,0.2c-0.3,0.5-0.4,1.1-0.5,1.7l0.8,0.1
					c0.2-1.3,0.9-2.5,1.8-3.5L63.2,465.5z"/>
				<path id="XMLID_345_" class="st20" d="M68.7,463.2c-0.2,0-0.3,0-0.5,0l-0.1-0.6c0.2-0.1,0.3-0.4,0.3-0.6c0-0.4-0.4-0.7-0.8-0.6
					c-0.4,0-0.7,0.4-0.6,0.8c0,0.3,0.2,0.5,0.4,0.6l0.1,0.6c-0.7,0.1-1.4,0.3-2.1,0.6l0.3,0.7c0.9-0.5,1.9-0.7,3-0.7
					c0.5,0,1,0,1.5,0.2l0.2-0.7C69.8,463.2,69.3,463.2,68.7,463.2z"/>
				<path id="XMLID_344_" class="st20" d="M75.3,465.7c0.3,0,0.6-0.3,0.5-0.7c0-0.3-0.3-0.6-0.7-0.5c-0.3,0-0.5,0.3-0.5,0.6
					l-0.4,0.4c-0.4-0.4-0.9-0.8-1.4-1.1l-0.4,0.6c1.1,0.7,2,1.7,2.6,2.9l0.7-0.3c-0.3-0.5-0.6-1.1-0.9-1.5l0.4-0.4
					C75.2,465.7,75.3,465.7,75.3,465.7z"/>
				<path id="XMLID_343_" class="st20" d="M68.2,473.4c-0.4,0-0.8,0-1.2,0c-0.9,0-1.7-0.1-2.5-0.2c-0.4-0.1-0.9-0.1-1.3-0.3
					c1,1.9,3.1,3.1,5.4,3.1c2.9,0,5.3-1.9,6-4.5c-0.7,0.5-1.5,0.8-2.5,1.1C71,473,69.6,473.3,68.2,473.4z"/>
				<path id="XMLID_339_" class="st20" d="M68.7,464.7c-3.4,0-6.1,2.7-6.1,5.9c0,0.4,0,0.9,0.1,1.3c0.7,0.5,2.7,0.9,5.4,0.7
					c2.9-0.2,5.3-1,6.7-2.2c0-0.2,0-0.4,0-0.6C74.4,466.9,71.8,464.7,68.7,464.7z M66.6,471.2c-1,0-1.9-0.8-1.9-1.9
					c0-1,0.8-1.9,1.9-1.9c1,0,1.9,0.8,1.9,1.9C68.4,470.4,67.6,471.2,66.6,471.2z M71.3,470.3c-0.8,0-1.4-0.6-1.4-1.4
					s0.6-1.4,1.4-1.4s1.4,0.6,1.4,1.4S72.1,470.3,71.3,470.3z"/>
			</g>
			<path id="XMLID_336_" class="st20" d="M84.7,466.5c-0.3-0.1-0.8-0.3-1.4-0.2c-0.5,0.1-0.8,0.3-0.8,1v0.9h2.2v1.7h-2.2v5.5h-1.9
				v-5.5h-1.3v-1.7h1.3v-0.9c0-1.7,0.9-2.8,2.6-2.8c0.6,0,1.2,0.1,1.6,0.3L84.7,466.5z"/>
			<path id="XMLID_334_" class="st20" d="M89.4,469.9c-0.2,0-0.4,0-0.5,0c-0.9,0-1.5,0.5-1.5,1.6v3.9h-1.9v-7.2h1.9v0.8
				c0.5-0.7,1.1-1,2-1c0.4,0,0.9,0.1,1.1,0.3L89.4,469.9z"/>
			<path id="XMLID_331_" class="st20" d="M97.1,471.8c0,0.2,0,0.5,0,0.6H92c0.2,1,0.9,1.5,1.8,1.5c0.6,0,1.3-0.3,1.8-0.7l1.1,1.2
				c-0.8,0.8-1.9,1.1-3.1,1.1c-2.2,0-3.7-1.5-3.7-3.8c0-2.3,1.5-3.8,3.6-3.8C95.7,468,97.1,469.5,97.1,471.8z M92,471.1h3.2
				c-0.2-0.9-0.7-1.4-1.6-1.4C92.7,469.6,92.2,470.2,92,471.1z"/>
			<path id="XMLID_328_" class="st20" d="M104.8,471.8c0,0.2,0,0.5,0,0.6h-5.1c0.2,1,0.9,1.5,1.8,1.5c0.6,0,1.3-0.3,1.8-0.7l1.1,1.2
				c-0.8,0.8-1.9,1.1-3.1,1.1c-2.2,0-3.7-1.5-3.7-3.8c0-2.3,1.5-3.8,3.6-3.8C103.3,468,104.7,469.5,104.8,471.8z M99.6,471.1h3.2
				c-0.2-0.9-0.7-1.4-1.6-1.4C100.3,469.6,99.8,470.2,99.6,471.1z"/>
			<path id="XMLID_325_" class="st20" d="M113.1,471.8c0,2.1-1.5,3.8-3.5,3.8c-1,0-1.6-0.4-2.1-0.9v3.7h-1.9v-10.1h1.9v0.8
				c0.5-0.6,1.1-1,2.1-1C111.6,468,113.1,469.6,113.1,471.8z M107.4,471.8c0,1.1,0.8,2,1.8,2c1.1,0,1.9-0.9,1.9-2s-0.7-2-1.9-2
				C108.2,469.8,107.4,470.6,107.4,471.8z"/>
			<path id="XMLID_322_" class="st20" d="M116.2,465.8c0,0.7-0.5,1.2-1.2,1.2c-0.7,0-1.2-0.5-1.2-1.2s0.5-1.2,1.2-1.2
				C115.7,464.6,116.2,465.1,116.2,465.8z M115.9,475.4H114v-7.2h1.9V475.4z"/>
			<path id="XMLID_320_" class="st20" d="M119.2,470.7l2.7-2.5h2.4l-3.5,3.4l3.5,3.8h-2.4l-2.7-2.9v2.9h-1.9v-10.7h1.9L119.2,470.7
				L119.2,470.7z"/>
		</g>
		<g>
			<path class="st20" d="M-12.5,475.3v-1c-0.5,0.7-1.4,1.2-2.4,1.2c-1.9,0-3.1-1.4-3.1-3.7c0-2.3,1.3-3.7,3.1-3.7
				c0.9,0,1.8,0.5,2.4,1.3v-3.8h1.1v9.8L-12.5,475.3L-12.5,475.3z M-12.5,473.4v-3.2c-0.4-0.6-1.2-1.1-2.1-1.1
				c-1.4,0-2.3,1.2-2.3,2.7c0,1.6,0.9,2.7,2.3,2.7C-13.7,474.5-12.8,474-12.5,473.4z"/>
			<path class="st20" d="M-9.9,471.7c0-2,1.5-3.7,3.5-3.7c2.1,0,3.4,1.7,3.4,3.8v0.3h-5.7c0.1,1.3,1,2.5,2.6,2.5
				c0.8,0,1.6-0.3,2.2-0.9l0.5,0.7c-0.7,0.7-1.6,1.1-2.8,1.1C-8.4,475.5-9.9,474-9.9,471.7z M-6.5,469c-1.5,0-2.3,1.3-2.3,2.4h4.6
				C-4.1,470.3-4.9,469-6.5,469z"/>
			<path class="st20" d="M-2.3,474.4l0.6-0.8c0.5,0.5,1.4,1,2.3,1c1.1,0,1.7-0.5,1.7-1.2c0-1.7-4.4-0.7-4.4-3.3c0-1.1,0.9-2,2.6-2
				c1.2,0,2.1,0.5,2.6,1l-0.5,0.8c-0.4-0.5-1.2-0.9-2.1-0.9c-1,0-1.6,0.5-1.6,1.1c0,1.5,4.4,0.5,4.4,3.3c0,1.2-0.9,2.1-2.8,2.1
				C-0.6,475.5-1.5,475.1-2.3,474.4z"/>
			<path class="st20" d="M4.6,466.5c0-0.4,0.3-0.8,0.7-0.8c0.4,0,0.8,0.3,0.8,0.8s-0.3,0.7-0.8,0.7C4.9,467.2,4.6,466.9,4.6,466.5z
				 M4.8,475.3v-7.1h1.1v7.1H4.8z"/>
			<path class="st20" d="M7.7,477.1l0.6-0.8c0.6,0.7,1.3,1,2.3,1c1.2,0,2.3-0.6,2.3-2.1v-1c-0.5,0.7-1.4,1.3-2.4,1.3
				c-1.9,0-3.1-1.4-3.1-3.7c0-2.3,1.3-3.7,3.1-3.7c0.9,0,1.8,0.5,2.4,1.3v-1.1h1.1v6.9c0,2.3-1.6,3.1-3.4,3.1
				C9.4,478.2,8.6,477.9,7.7,477.1z M12.8,473.3v-3.1c-0.4-0.6-1.2-1.1-2.1-1.1c-1.4,0-2.3,1.1-2.3,2.7c0,1.5,0.9,2.7,2.3,2.7
				C11.6,474.4,12.5,473.9,12.8,473.3z"/>
			<path class="st20" d="M20.5,475.3v-4.6c0-1.2-0.6-1.6-1.6-1.6c-0.9,0-1.7,0.5-2.1,1.1v5.2h-1.1v-7.1h1.1v1
				c0.5-0.6,1.5-1.2,2.5-1.2c1.5,0,2.3,0.8,2.3,2.3v5L20.5,475.3L20.5,475.3z"/>
			<path class="st20" d="M23.1,471.7c0-2,1.5-3.7,3.5-3.7c2.1,0,3.4,1.7,3.4,3.8v0.3h-5.7c0.1,1.3,1,2.5,2.6,2.5
				c0.8,0,1.6-0.3,2.2-0.9l0.5,0.7c-0.7,0.7-1.7,1.1-2.8,1.1C24.6,475.5,23.1,474,23.1,471.7z M26.5,469c-1.5,0-2.3,1.3-2.3,2.4h4.6
				C28.9,470.3,28.2,469,26.5,469z"/>
			<path class="st20" d="M36.5,475.3v-1c-0.5,0.7-1.4,1.2-2.4,1.2c-1.9,0-3.1-1.4-3.1-3.7c0-2.3,1.3-3.7,3.1-3.7
				c0.9,0,1.8,0.5,2.4,1.3v-3.8h1.1v9.8L36.5,475.3L36.5,475.3z M36.5,473.4v-3.2c-0.4-0.6-1.3-1.1-2.1-1.1c-1.4,0-2.3,1.2-2.3,2.7
				c0,1.6,0.9,2.7,2.3,2.7C35.2,474.5,36.1,474,36.5,473.4z"/>
			<path class="st20" d="M42.8,475.3v-9.8h1.1v3.8c0.6-0.8,1.4-1.3,2.4-1.3c1.9,0,3.1,1.5,3.1,3.7c0,2.3-1.3,3.7-3.1,3.7
				c-1,0-1.9-0.5-2.4-1.2v1L42.8,475.3L42.8,475.3z M46,474.5c1.4,0,2.3-1.2,2.3-2.7c0-1.6-0.9-2.7-2.3-2.7c-0.9,0-1.7,0.5-2.1,1.1
				v3.2C44.3,474,45.2,474.5,46,474.5z"/>
			<path class="st20" d="M50.7,477.1c0.2,0.1,0.4,0.1,0.6,0.1c0.5,0,0.8-0.2,1.1-0.8l0.5-1.1l-3-7.1H51l2.4,5.8l2.3-5.8h1.2
				l-3.5,8.5c-0.4,1-1.1,1.4-2.1,1.4c-0.2,0-0.6,0-0.8-0.1L50.7,477.1z"/>
		</g>
	</g>
</g>
<g>
	<path d="M154.6,106.4l13.5-0.3c3.3,0,5,0.2,5,0.7c0,1.2-6.8,2.3-20.3,3.2c-8.6,16.9-12.9,28.4-12.9,34.5c0,4.3,1.3,6.4,4,6.4
		c1,0,2.3-0.6,3.8-1.9c1.5-1.3,2.5-1.9,2.8-1.9c0.3,0,0.5,0.2,0.5,0.7c-0.5,1.7-1.9,3.1-4.2,4.2s-4.4,1.7-6,1.7
		c-1.6,0-2.9-0.1-3.8-0.3c-2.2-0.8-3.3-3.5-3.3-8.1c0-9.4,3.6-21.3,10.7-35.7l-16.7,0.4c-12.4,12.1-24.9,22.8-37.4,32
		c-18.7,13.6-33.4,20.4-43.9,20.4c-0.6,0-1.3,0-1.9-0.1c-14.3-1.2-21.4-8.5-21.4-22c0-8,2.5-16.4,7.5-25.3
		c6.7-11.9,15.8-22,27.4-30.4c11.6-8.4,22-12.6,31.1-12.6s13.8,3.4,13.8,10.1c0,4.5-1.4,9.6-4.2,15.2c-2.8,5.6-5.6,9.1-8.5,10.6
		c-0.3,0.1-0.6,0.1-0.9,0.1c-0.3,0-0.5-0.1-0.5-0.3l4.6-7.5c3.1-4.9,4.7-9.2,4.7-12.9c0-3.7-0.8-6.7-2.4-9c-1.6-2.3-4.2-3.4-7.7-3.4
		c-7.2,0-15.9,4-25.9,12.1c-10.1,8.1-17.7,18-22.9,29.7c-5.2,11.8-7.9,20.9-7.9,27.5c0,9.9,5,14.9,15.2,14.9
		c9.6,0,22.7-6.2,39.2-18.6c7.3-5.5,19.2-15.8,35.7-31c-3.2,0.2-6.3,0.5-9,1c-5.9,1.1-8.7,0.9-8.3-0.6c0.4-3.4,2.1-5.1,5.3-5.1
		c6.1,0.7,11.3,1.1,15.4,1.1c8-7.3,19.9-19.3,35.7-36c10.7-11.2,17.1-16.8,19.5-16.8c1,0,1.5,0.8,1.5,2.4c0,1.6-0.4,4-1.3,7.4
		c-0.8,3.3-1.8,5.4-2.8,6.1c-2.1,1.5-4.1,3.5-6,6c-1.9,2.5-4.5,7.3-7.9,14.3C159.9,96.4,157,102.1,154.6,106.4z M165.7,72.5
		l-35.6,33.4h8.2c1.9,0.1,4.4,0.1,7.2,0.1C148.2,100.7,154.9,89.5,165.7,72.5z"/>
	<path d="M231.3,144.5c-6.3,0-9.5-2.9-9.5-8.8c0-3.3,1.5-7.9,4.4-13.7c3-5.8,6.1-10.7,9.3-14.7c-5.7,2.8-12.4,7.8-19.9,15.1
		c-7.5,7.3-12.7,14.9-15.7,22.9c-0.5,0.7-1.3,1.1-2.4,1.1c-2.2,0-3.3-1.3-3.3-3.8c0.9-5.1,3-10.9,6.3-17.5c1-2.1,4-8.3,9-18.6
		c-7.2,4.7-13.4,9.8-18.4,15.2c-5.1,5.4-9.7,10.9-14,16.3c-4.3,5.5-6.7,8.2-7.3,8.2c-1.2,0-2.2-0.6-3.1-1.7
		c-0.9-1.1-1.3-2.2-1.3-3.3c0-1.7,2.4-7.8,7.2-18.3l-8.3,8.8c-2,2-3.3,3.1-3.8,3.1c-0.5,0-0.8-0.3-0.8-0.9c0-0.6,0.4-1.3,1.1-2
		c3.4-3.4,6.5-6.9,9.2-10.3c2.7-3.4,7.1-9.5,13.3-18.3c1-1.4,2.5-2.1,4.3-2.1c1.9,0,2.8,0.9,2.8,2.6c0,0.6-2.5,5.2-7.4,13.6
		c-4.9,8.4-7.6,13.6-8.2,15.8c3.8-4.2,9.5-9.8,17.1-16.8c11.4-10.6,18.9-15.8,22.5-15.8c1.1,0,2.1,0.3,3.1,1
		c0.9,0.6,1.4,1.4,1.4,2.2c0,0.8-1.8,4.3-5.4,10.5c-3.5,6.4-5.5,10.2-5.8,11.4c10.3-8.6,15.4-13,15.4-13.1
		c8.7-6.8,15-10.1,18.8-10.1c1.1,0,2.2,0.3,3.1,1c1,0.7,1.5,1.5,1.5,2.4c0,0.2-3,4.1-9,11.7c-6,7.6-9.4,13.9-10.1,18.8
		c-0.2,1.7,0.1,2.9,1,3.8s2.3,1.3,4.5,1.3c2.2,0,5.4-1.5,9.6-4.5c4.2-3,8.5-7.1,12.9-12.2c1.7-1.9,2.8-2.8,3.4-2.8
		c0.6,0,0.9,0.2,0.9,0.7c0,0.6-0.4,1.4-1.3,2.2c-4.5,5.5-9.4,10.1-14.7,14C238.3,142.6,234.2,144.5,231.3,144.5z"/>
	<path d="M303.6,138.6c0,2.2-0.7,4-2.1,5.4c-1.4,1.4-3.2,2.1-5.4,2.1h-35V39.9h34.8c2.2,0,4,0.7,5.4,2.1c1.4,1.4,2.1,3.2,2.1,5.4V79
		c0,2.8-1.3,5.2-3.8,7.1c-2.5,1.5-5,3-7.5,4.5l8,5.2c2.4,1.4,3.5,3.7,3.5,6.8V138.6z M293.8,80.3v-32h-23.3v38.3h13.9L293.8,80.3z
		 M294.1,137.8v-36.7l-9.6-6.2h-14v43H294.1z"/>
	<path d="M356.3,146.2h-8.9v-1.8c-3.6,0.5-7.1,1-10.7,1.4c-4.4,0.5-8,0.8-10.7,0.8c-4.9,0-7.4-2.4-7.4-7.3v-24.1
		c0-5.1,2.6-7.6,7.7-7.6h21.2V87.7h-19.4v11.3h-8.8V87.8c0-5.1,2.5-7.7,7.6-7.7h21.7c5.1,0,7.6,2.6,7.6,7.7V146.2z M347.6,137.9
		v-23.3h-20.2v23.8L347.6,137.9z"/>
	<path d="M408.2,146.2h-9.8l-18.2-33.7v33.7h-9V39.9h9v67.5l17-27.3h9.7v0.3l-19.2,29.2L408.2,146.2z"/>
	<path d="M454.6,138.5c0,5.1-2.5,7.7-7.6,7.7h-21.7c-5.1,0-7.6-2.6-7.6-7.7V87.8c0-5.1,2.5-7.7,7.6-7.7H447c5.1,0,7.6,2.6,7.6,7.7
		v23.8l-3.1,3.2h-25.1v23.9h19.4v-12.1h8.8V138.5z M445.8,107.5V87.7h-19.4v19.9H445.8z"/>
	<path d="M504.1,101.8h-8.9V88.2l-16.6,0.5v57.4h-9v-66h9V82c3-0.5,6-0.9,9-1.4c3.6-0.5,6.6-0.8,9-0.8c5,0,7.5,2.5,7.5,7.4V101.8z"
		/>
	<path d="M552.7,80.1l-15.9,65.5l-6.6,25.6h-8.9l6.7-25.6l-16.3-65.5h9.3l11.3,52l11.4-52H552.7z"/>
</g>
</svg>
