<?xml version="1.0" encoding="utf-8"?>
<!-- Generator: Adobe Illustrator 24.2.1, SVG Export Plug-In . SVG Version: 6.00 Build 0)  -->
<svg version="1.1" id="Layer_1" xmlns="http://www.w3.org/2000/svg" xmlns:xlink="http://www.w3.org/1999/xlink" x="0px" y="0px"
	 viewBox="0 0 774.9 206.3" style="enable-background:new 0 0 774.9 206.3;" xml:space="preserve">
<style type="text/css">
	.st0{display:none;}
	.st1{display:inline;fill:#FFFFFF;}
	.st2{display:inline;fill:none;}
	.st3{display:inline;}
	.st4{font-family:'Poppins-Regular';}
	.st5{font-size:11.0074px;}
	.st6{letter-spacing:5;}
	.st7{font-size:26.2641px;}
	.st8{font-size:14.7432px;}
	.st9{letter-spacing:2;}
	.st10{font-size:18.0328px;}
	.st11{letter-spacing:3;}
	.st12{fill:none;stroke:#000000;stroke-width:2.7611;stroke-miterlimit:10;}
	.st13{display:inline;fill:none;stroke:#000000;stroke-width:0.9173;stroke-miterlimit:10;}
	.st14{display:inline;fill:none;stroke:#000000;stroke-width:0.9221;stroke-miterlimit:10;}
	.st15{fill:none;}
	.st16{display:inline;fill:none;stroke:#000000;stroke-width:3.3984;stroke-miterlimit:10;}
	.st17{display:inline;fill:none;stroke:#000000;stroke-width:2.5123;stroke-miterlimit:10;}
	.st18{fill:none;stroke:#000000;stroke-width:2.5123;stroke-miterlimit:10;}
	.st19{fill:#1D262D;}
</style>
<g id="BACKGROUND" class="st0">
	<rect class="st1" width="500" height="500"/>
</g>
<g id="OBJECTS">
	<g>
		<g>
			<path d="M57.4,151.7c0,0.8-0.3,1.5-0.8,2s-1.2,0.8-2,0.8H41.8v-39h12.8c0.8,0,1.5,0.3,2,0.8s0.8,1.2,0.8,2v11.6
				c0,1-0.5,1.9-1.4,2.6c-0.9,0.6-1.8,1.1-2.7,1.6l2.9,1.9c0.9,0.5,1.3,1.4,1.3,2.5L57.4,151.7L57.4,151.7z M53.8,130.3v-11.7h-8.6
				v14.1h5.1L53.8,130.3z M53.9,151.4v-13.5l-3.5-2.3h-5.2v15.8H53.9z"/>
			<path d="M76.7,154.4h-3.3v-0.7c-1.3,0.2-2.6,0.4-3.9,0.5c-1.6,0.2-2.9,0.3-3.9,0.3c-1.8,0-2.7-0.9-2.7-2.7V143
				c0-1.9,0.9-2.8,2.8-2.8h7.8V133h-7.1v4.1h-3.2V133c0-1.9,0.9-2.8,2.8-2.8h8c1.9,0,2.8,0.9,2.8,2.8L76.7,154.4L76.7,154.4z
				 M73.5,151.4v-8.6h-7.4v8.7L73.5,151.4z"/>
			<path d="M95.8,154.4h-3.6L85.5,142v12.4h-3.3v-39h3.3v24.8l6.2-10h3.6v0.1L88.2,141L95.8,154.4z"/>
			<path d="M112.8,151.6c0,1.9-0.9,2.8-2.8,2.8h-8c-1.9,0-2.8-0.9-2.8-2.8V133c0-1.9,0.9-2.8,2.8-2.8h8c1.9,0,2.8,0.9,2.8,2.8v8.7
				l-1.1,1.2h-9.2v8.8h7.1v-4.4h3.2V151.6z M109.6,140.3V133h-7.1v7.3H109.6z"/>
			<path d="M130.9,138.2h-3.3v-5l-6.1,0.2v21.1h-3.3v-24.2h3.3v0.7c1.1-0.2,2.2-0.3,3.3-0.5c1.3-0.2,2.4-0.3,3.3-0.3
				c1.8,0,2.7,0.9,2.7,2.7v5.3H130.9z"/>
			<path d="M148.8,130.2l-5.8,24l-2.4,9.4h-3.3l2.4-9.4l-6-24h3.4l4.1,19.1l4.2-19.1H148.8z"/>
		</g>
		<g>
			<path d="M41.8,163.3v-5.8h3.8v0.5h-3.3v2.1h2.8v0.5h-2.8v2.7H41.8L41.8,163.3z"/>
			<path d="M50.8,163.3v-5.8h2.5c0.3,0,0.5,0.1,0.7,0.2c0.2,0.1,0.4,0.3,0.5,0.4c0.2,0.2,0.3,0.4,0.4,0.6c0.1,0.2,0.1,0.4,0.1,0.7
				c0,0.2,0,0.4-0.1,0.6s-0.2,0.4-0.3,0.5c-0.1,0.2-0.3,0.3-0.4,0.4s-0.3,0.2-0.5,0.2l1.4,2.3h-0.7l-1.4-2.2h-1.7v2.2L50.8,163.3
				L50.8,163.3z M51.3,160.6h1.9c0.2,0,0.3,0,0.5-0.1c0.1-0.1,0.3-0.2,0.4-0.3c0.1-0.1,0.2-0.3,0.2-0.4c0-0.2,0.1-0.3,0.1-0.5
				s0-0.3-0.1-0.5s-0.2-0.3-0.3-0.4c-0.1-0.1-0.2-0.2-0.4-0.3s-0.3-0.1-0.5-0.1h-1.9L51.3,160.6L51.3,160.6z"/>
			<path d="M62.6,163.3c-0.4,0-0.8-0.1-1.1-0.3s-0.6-0.4-0.9-0.7c-0.2-0.3-0.4-0.6-0.6-0.9s-0.2-0.7-0.2-1.1c0-0.4,0.1-0.8,0.2-1.1
				s0.3-0.7,0.6-0.9c0.3-0.3,0.5-0.5,0.9-0.6c0.3-0.2,0.7-0.2,1.1-0.2c0.4,0,0.8,0.1,1.1,0.3s0.6,0.4,0.9,0.7s0.4,0.6,0.6,0.9
				s0.2,0.7,0.2,1.1c0,0.4-0.1,0.8-0.2,1.1s-0.3,0.7-0.6,0.9c-0.2,0.3-0.5,0.5-0.9,0.6C63.3,163.2,63,163.3,62.6,163.3z M60.4,160.3
				c0,0.3,0,0.6,0.2,0.9c0.1,0.3,0.3,0.6,0.4,0.8s0.4,0.4,0.7,0.5s0.6,0.2,0.9,0.2c0.3,0,0.6-0.1,0.9-0.2s0.5-0.3,0.7-0.6
				c0.2-0.2,0.3-0.5,0.4-0.8s0.2-0.6,0.2-0.9c0-0.3-0.1-0.6-0.2-0.9c-0.1-0.3-0.3-0.6-0.4-0.8s-0.4-0.4-0.7-0.5s-0.5-0.2-0.9-0.2
				c-0.3,0-0.6,0.1-0.9,0.2s-0.5,0.3-0.7,0.6s-0.3,0.5-0.4,0.8S60.4,160,60.4,160.3z"/>
			<path d="M75.7,163.3v-4.8l-2.1,3.7h-0.3l-2.1-3.7v4.8h-0.6v-5.8h0.6l2.3,4l2.3-4h0.6v5.8H75.7z"/>
			<path d="M93.3,163.3v-4.8l-2.1,3.7h-0.3l-2.1-3.7v4.8h-0.6v-5.8h0.6l2.3,4l2.3-4H94v5.8H93.3z"/>
			<path d="M99.4,163.3v-5.8h0.6v5.8H99.4z"/>
			<path d="M105.6,163.3v-5.8h2.5c0.3,0,0.5,0.1,0.7,0.2c0.2,0.1,0.4,0.3,0.6,0.4c0.2,0.2,0.3,0.4,0.4,0.6c0.1,0.2,0.1,0.4,0.1,0.7
				c0,0.2,0,0.4-0.1,0.6s-0.2,0.4-0.3,0.5s-0.3,0.3-0.4,0.4s-0.3,0.2-0.5,0.2l1.4,2.3h-0.7l-1.4-2.2h-1.7v2.2L105.6,163.3
				L105.6,163.3z M106.2,160.6h1.9c0.2,0,0.3,0,0.5-0.1c0.1-0.1,0.3-0.2,0.4-0.3s0.2-0.3,0.2-0.4c0.1-0.2,0.1-0.3,0.1-0.5
				s0-0.3-0.1-0.5s-0.2-0.3-0.3-0.4c-0.1-0.1-0.2-0.2-0.4-0.3s-0.3-0.1-0.5-0.1h-1.9L106.2,160.6L106.2,160.6z"/>
			<path d="M119,162.7v0.5h-3.9v-5.8h3.8v0.5h-3.3v2.1h2.9v0.5h-2.9v2.2H119L119,162.7z"/>
			<path d="M126,157.4h0.5l2.4,5.8h-0.6l-0.8-1.8h-2.6l-0.8,1.8h-0.6L126,157.4z M127.4,161l-1.2-2.9L125,161H127.4z"/>
		</g>
		<g>
			<path d="M164.1,151.6c29.3-28.1,31.3-75.7-0.3-103.2C133.4,22,88.7,28.2,63.9,58.7c-1.7,2.1,1.3,5.1,3,3
				c23.3-28.6,65.1-35.2,93.9-10.3c30,25.9,28.1,70.6,0.3,97.2C159.1,150.5,162.2,153.5,164.1,151.6L164.1,151.6z"/>
		</g>
		<g>
			<path d="M121.5,120c-12,0-21.7-9.7-21.7-21.7s9.7-21.7,21.7-21.7s21.7,9.7,21.7,21.7S133.4,120,121.5,120z M121.5,80.2
				c-9.9,0-18,8.1-18,18s8.1,18,18,18s18-8.1,18-18S131.4,80.2,121.5,80.2z"/>
		</g>
		<path d="M184.3,83.8l-8.7-19.7L160.3,48L140,36.8l-22.2-2.6l-22,4c0,0-18.4,4.1-31.9,20.5c0,0-4.7,5.4-1.4,8
			c3.3,2.6,14.7-5.8,16.2,0c1.5,5.8-2.9,14,0.8,17.7s11.7-8.6,10.7,6.2s7.4,17.4,12.1,2.7s16.9-18.3,26.5-13.4
			c9.6,4.9,17.9,20.8,8.6,32.6c0,0-1.4,10.5,4.5,9.6c5.3-0.8,1.5-8.8,7.4-8.6c6,0.2,0.1,18.7,5.6,19.3c5.5,0.6-0.6-20,5.6-17.8
			c9.5,3.3-9.6,37.3,2.8,37.3l12.3-19.1l9.6-27.6L184.3,83.8z M85.1,55.4c-0.1-0.5,0.3-0.9,0.8-1l1.8-0.2c0.5,0,0.9,0.3,1,0.8
			s-0.3,0.9-0.8,1l-1.8,0.2C85.6,56.3,85.2,55.9,85.1,55.4z M89,66.2l-1.5,1.1c-0.3,0.3-0.9,0.2-1.2-0.2s-0.2-0.9,0.2-1.2l1.5-1.1
			c0.4-0.3,0.9-0.2,1.2,0.2C89.5,65.4,89.4,65.9,89,66.2z M97.5,54.6l-0.4,1.8c-0.2,0.4-0.6,0.7-1.1,0.6c-0.5-0.1-0.8-0.6-0.6-1.1
			l0.4-1.8c0.1-0.5,0.6-0.8,1.1-0.6C97.4,53.6,97.7,54.1,97.5,54.6z M99.3,47.8c-0.5,0.1-0.9-0.1-1.1-0.6l-0.5-1.8
			c-0.2-0.5,0.1-1,0.6-1.1s0.9,0.1,1.1,0.6l0.5,1.8C100,47.2,99.8,47.7,99.3,47.8z M103.7,68.1l-0.9,1.6c-0.2,0.4-0.8,0.5-1.2,0.3
			c-0.4-0.2-0.6-0.8-0.3-1.2l0.9-1.6c0.2-0.4,0.8-0.6,1.2-0.3C103.8,67.1,104,67.7,103.7,68.1z M108.9,48.7c0,0.5-0.4,0.9-0.9,0.9
			s-0.9-0.4-0.9-0.9v-1.8c0-0.5,0.4-0.9,0.9-0.9s0.9,0.4,0.9,0.9V48.7z M109.9,60.9c0.1-0.5,0.5-0.8,1-0.7l1.8,0.3
			c0.5,0.1,0.8,0.5,0.7,1c-0.1,0.5-0.5,0.8-1,0.7l-1.8-0.3C110.1,61.8,109.8,61.4,109.9,60.9z M114.2,76.6l-1.1,1.5
			c-0.2,0.4-0.8,0.5-1.2,0.2c-0.4-0.3-0.5-0.8-0.2-1.2l1.1-1.5c0.3-0.4,0.8-0.5,1.2-0.2C114.4,75.7,114.5,76.2,114.2,76.6z
			 M119.6,49.2l-1.8,0.3c-0.4,0.1-0.9-0.2-1-0.7c-0.1-0.5,0.2-0.9,0.7-1l1.8-0.3c0.5-0.1,0.9,0.2,1,0.7
			C120.4,48.7,120.1,49.1,119.6,49.2z M169.4,63.8c1.7,0,3.1,1.4,3.1,3.1c0,1.7-1.4,3.1-3.1,3.1c-1.7,0-3.1-1.4-3.1-3.1
			C166.3,65.2,167.7,63.8,169.4,63.8z M122.9,61.7c-0.4,0.2-1,0-1.2-0.4l-0.8-1.7c-0.2-0.4,0-1,0.4-1.2c0.4-0.2,1,0,1.2,0.4l0.8,1.7
			C123.6,61,123.4,61.5,122.9,61.7z M126.8,76.3c-0.3,0.4-0.9,0.4-1.2,0.1l-1.4-1.2c-0.4-0.3-0.4-0.9-0.1-1.2
			c0.3-0.4,0.9-0.4,1.2-0.1l1.4,1.2C127,75.4,127.1,75.9,126.8,76.3z M131.7,66.5c-0.1,0.5-0.6,0.8-1.1,0.6l-1.8-0.4
			c-0.5-0.1-0.8-0.6-0.6-1.1c0.1-0.5,0.6-0.8,1.1-0.6l1.8,0.4C131.6,65.5,131.8,66,131.7,66.5z M133.6,52.7c-0.5,0.1-1-0.2-1-0.7
			c-0.1-0.5,0.2-0.9,0.7-1l1.8-0.3c0.5-0.1,0.9,0.2,1,0.7c0.1,0.5-0.2,0.9-0.7,1L133.6,52.7z M137.6,82.2l-0.9,1.6
			c-0.3,0.4-0.8,0.6-1.2,0.3c-0.4-0.2-0.6-0.8-0.3-1.2l0.9-1.6c0.2-0.4,0.8-0.6,1.2-0.3C137.7,81.2,137.9,81.8,137.6,82.2z
			 M143.8,74.4c-0.1,0.5-0.5,0.8-1,0.7l-1.8-0.3c-0.4,0-0.8-0.5-0.7-1c0.1-0.5,0.5-0.8,1-0.7l1.8,0.3
			C143.6,73.5,143.9,73.9,143.8,74.4z M143.9,61.4c0.1-0.5,0.5-0.8,1-0.7l1.8,0.3c0.5,0.1,0.8,0.5,0.7,1c-0.1,0.5-0.5,0.8-1,0.7
			l-1.8-0.3C144.1,62.3,143.8,61.9,143.9,61.4z M147.7,100l-1.5,1.1c-0.3,0.2-0.9,0.2-1.2-0.2c-0.3-0.4-0.2-0.9,0.2-1.2l1.5-1.1
			c0.4-0.3,0.9-0.2,1.2,0.2C148.2,99.2,148.1,99.7,147.7,100z M149.3,88.4l-1.5,1.1c-0.3,0.3-0.9,0.2-1.2-0.2
			c-0.3-0.4-0.2-0.9,0.2-1.2l1.5-1.1c0.4-0.3,0.9-0.2,1.2,0.2C149.8,87.6,149.7,88.1,149.3,88.4z M157.5,82.3
			c-0.1,0.5-0.5,0.8-1,0.7l-1.8-0.3c-0.5-0.1-0.8-0.6-0.7-1c0.1-0.5,0.5-0.8,1-0.7l1.8,0.3C157.3,81.4,157.6,81.8,157.5,82.3z
			 M157.5,70.5c-0.1,0.5-0.6,0.8-1.1,0.6l-1.8-0.4c-0.5-0.1-0.8-0.6-0.6-1.1c0.1-0.5,0.6-0.8,1.1-0.6l1.8,0.4
			C157.3,69.6,157.6,70.1,157.5,70.5z M163.2,93.8l-1.5,1.1c-0.3,0.2-0.9,0.1-1.2-0.2c-0.3-0.4-0.2-0.9,0.2-1.2l1.5-1.1
			c0.4-0.3,0.9-0.2,1.2,0.2C163.7,93,163.6,93.5,163.2,93.8z M161,60.6c-4.4-5-17.1-17.6-36.9-19.3c-1.5-0.1-2.6-1.3-2.6-2.8
			c0-1.7,1.3-3,2.9-2.9c7.3,0.4,27.1,3,41.8,20.5c1,1.2,0.8,3-0.4,4l-1,0.8C163.6,61.8,161.9,61.7,161,60.6z M168.8,105.5
			c-0.1,0.5-0.5,0.8-1,0.7l-1.8-0.3c-0.5-0.1-0.8-0.5-0.7-1c0.1-0.5,0.5-0.8,1-0.7l1.8,0.3C168.6,104.6,168.9,105,168.8,105.5z
			 M172.6,79.2c-0.1,0.5-0.5,0.8-1,0.7l-1.8-0.3c-0.5-0.1-0.8-0.5-0.7-1c0.1-0.5,0.5-0.8,1-0.7l1.8,0.3
			C172.4,78.3,172.7,78.7,172.6,79.2z M176.4,92.6c-0.4,0.2-1,0-1.2-0.4l-0.8-1.7c-0.2-0.4,0-1,0.4-1.2c0.4-0.2,1,0,1.2,0.4l0.8,1.7
			C177.1,91.8,176.9,92.3,176.4,92.6z"/>
		<g>
			<path d="M56.5,96.9l4.2-1.2c1-0.3,1.6-0.3,1.6-0.2c0.1,0.4-1.9,1.3-6.1,2.7c-1.3,6-1.6,10-1.1,11.9c0.4,1.3,1,1.9,1.8,1.7
				c0.3-0.1,0.7-0.4,1-0.9c0.4-0.5,0.6-0.8,0.7-0.8s0.2,0,0.2,0.2c0,0.6-0.3,1.1-1,1.7s-1.2,0.9-1.7,1s-0.9,0.2-1.2,0.2
				c-0.8-0.1-1.3-0.8-1.7-2.2c-0.8-2.9-0.7-6.9,0.3-12.1l-5.2,1.5c-2.8,4.8-5.8,9.2-9,13.2c-4.7,5.8-8.7,9.2-12,10.1
				c-0.2,0.1-0.4,0.1-0.6,0.1c-4.6,0.8-7.4-0.8-8.6-5.1c-0.7-2.5-0.6-5.3,0.2-8.5c1.1-4.3,3.1-8.2,6-11.8s5.8-5.8,8.7-6.6
				c2.9-0.8,4.6-0.1,5.2,2c0.4,1.4,0.4,3.1,0,5.1s-1,3.3-1.8,4c-0.1,0.1-0.2,0.1-0.3,0.1s-0.2,0-0.2-0.1l0.8-2.7
				c0.6-1.8,0.7-3.3,0.4-4.4c-0.3-1.2-0.8-2-1.5-2.6s-1.6-0.7-2.7-0.4c-2.3,0.6-4.6,2.6-7.1,6s-4,7.1-4.6,11.2s-0.7,7.2-0.1,9.3
				c0.8,3.1,2.8,4.2,6,3.4c3-0.8,6.6-3.9,10.7-9.1c1.8-2.3,4.7-6.6,8.5-12.7c-1,0.3-1.9,0.7-2.7,1.1c-1.8,0.8-2.6,1-2.7,0.5
				c-0.2-1.1,0.2-1.8,1.2-2.1c2-0.3,3.6-0.6,4.9-1c1.9-3,4.6-7.7,8.1-14.3c2.4-4.4,3.9-6.7,4.7-6.9c0.3-0.1,0.5,0.1,0.7,0.6
				c0.1,0.5,0.2,1.3,0.2,2.4s-0.1,1.8-0.3,2.2c-0.5,0.6-1,1.4-1.4,2.4c-0.4,0.9-0.8,2.7-1.3,5.1C57.4,93.3,56.9,95.3,56.5,96.9z
				 M57.2,85.4l-8.3,13.4l2.6-0.7c0.6-0.1,1.4-0.3,2.3-0.6C54.1,95.7,55.2,91.6,57.2,85.4z"/>
			<path d="M83.8,102.3c-2,0.5-3.2-0.1-3.7-1.9c-0.3-1-0.2-2.6,0.2-4.7c0.4-2.1,1-3.8,1.7-5.4c-1.6,1.4-3.2,3.5-4.9,6.4
				s-2.7,5.7-3,8.5c-0.1,0.3-0.3,0.4-0.6,0.6c-0.7,0.2-1.2-0.1-1.4-0.9c-0.1-1.7,0-3.7,0.5-6c0.1-0.8,0.6-2.9,1.3-6.6
				c-1.9,2.1-3.3,4.2-4.5,6.3c-1.1,2.1-2.1,4.2-3,6.3s-1.4,3.1-1.6,3.2c-0.4,0.1-0.8,0-1.1-0.3c-0.4-0.3-0.6-0.6-0.7-0.9
				c-0.1-0.5,0.1-2.6,0.7-6.3l-1.9,3.4c-0.5,0.8-0.8,1.2-0.9,1.3s-0.3,0-0.3-0.2s0-0.4,0.2-0.7c0.8-1.4,1.5-2.7,2-4s1.4-3.6,2.6-6.9
				c0.2-0.5,0.6-0.9,1.2-1c0.6-0.2,0.9,0,1.1,0.6c0.1,0.2-0.3,1.8-1.2,4.9s-1.2,4.9-1.2,5.6c0.8-1.6,2.1-3.9,3.9-6.7
				c2.7-4.3,4.6-6.6,5.7-6.9c0.3-0.1,0.7-0.1,1,0.1c0.3,0.1,0.6,0.3,0.6,0.6s-0.2,1.5-0.8,3.7c-0.6,2.3-0.8,3.7-0.9,4.1
				c2.5-3.6,3.7-5.4,3.7-5.4c2.2-2.8,3.8-4.4,5-4.8c0.3-0.1,0.7-0.1,1.1,0.1c0.4,0.1,0.6,0.3,0.7,0.6c0,0.1-0.6,1.5-1.8,4.4
				s-1.8,5.2-1.6,6.7c0.1,0.5,0.3,0.9,0.6,1.1c0.3,0.2,0.8,0.2,1.5,0s1.6-0.9,2.6-2.2c1.1-1.3,2.1-2.9,3-4.9
				c0.4-0.7,0.6-1.1,0.8-1.2s0.3,0,0.3,0.1c0.1,0.2,0,0.5-0.2,0.8c-1,2.1-2.1,4-3.4,5.6C85.8,101.1,84.7,102.1,83.8,102.3z"/>
		</g>
	</g>
	<g class="st0">
		<rect x="311.7" y="205.9" class="st2" width="133.5" height="13.2"/>
		<text transform="matrix(1 0 0 1 314.5886 214.0498)" class="st3 st4 st5 st6">since 1954</text>
		<g class="st3">
			<text transform="matrix(1 0 0 1 315.9089 176.3984)" class="st4 st7 st6">Bread</text>
			<text transform="matrix(0 -1 1 0 444.3659 196.04)" class="st4 st8 st9">and</text>
			<text transform="matrix(1 0 0 1 318.2272 198.1563)" class="st4 st10 st11">cookies</text>
		</g>
		<g class="st3">
			<g>
				<g>
					<g>
						<path d="M401.9,102.2c3-0.5,6.1-1,9.1-1.4c2.1-0.3,4.3-0.6,6.3-0.9c0.8-0.1,1.7-0.2,2.5-0.3c0.3,0,0.5,0,0.8-0.1
							c0.1,0,0.2,0,0.3,0c0.1,0,0.1,0,0,0c0.4,0.1,0.2,0-0.6-0.5c-0.1-0.3-0.1-0.6-0.2-0.8c0,0.1,0.1-0.3,0.1-0.3
							c-0.1,0-0.2,0.3-0.3,0.4c-0.3,0.4-0.6,0.8-0.8,1.2c-0.7,1.2-1,2.4-0.7,3.7c0.3,1.6,1,3.2,1.7,4.7c2,4.2,5.3,8.5,9.9,9.9
							c0.6,0.2,1.2,0.3,1.8,0.4c0.2,0,1-0.1,0.3,0c0.3,0,0.2,0,0.2,0c0,0.1-0.4-0.4-0.5-0.5v0.1c0,0.1,0.1-0.5,0-0.1
							c-0.2,0.8-0.5,1.6-0.8,2.4c-0.1,0.3,0.1-0.2,0,0.1c-0.1,0.2-0.1,0.3-0.2,0.4c-0.1,0.3-0.3,0.6-0.5,0.9
							c-0.4,0.7-0.7,1.3-1.2,1.9c-1,1.4-2.1,2.7-3.4,3.9c-4.4,4.1-10,6.3-15.7,7.5c-2.1,0.4-1.2,3.7,0.9,3.3c7.5-1.6,14.8-5,19.7-11
							c1.5-1.8,2.7-3.8,3.6-6c0.5-1.1,0.9-2.3,1-3.5c0-1-0.5-2-1.4-2.5c-0.7-0.4-1.4-0.3-2.2-0.3c0.7,0-0.1-0.1-0.5-0.2
							s-0.7-0.2-1-0.4c-0.8-0.3-1.5-0.8-2.1-1.3c-2.5-2-4.3-5-5.5-7.9c-0.2-0.6-0.4-1.1-0.6-1.7c-0.1-0.5-0.3-0.9-0.2-1.2
							c0.3-1.4,1.8-2.3,1.9-3.8c0.1-3-4.1-2.1-5.9-1.9c-5.6,0.7-11.1,1.6-16.6,2.4C398.9,99.3,399.8,102.6,401.9,102.2L401.9,102.2z
							"/>
					</g>
					<g>
						<path d="M360.9,103.6c-0.8-0.1-0.4,0-0.2,0c0,0-0.4-0.2-0.1-0.1c0.2,0.1,0.3,0.2,0,0c0.1,0.1,0.2,0.2,0.3,0.3
							c-0.2-0.3,0,0,0.1,0.2c0.2,0.3,0.3,0.6,0.4,1.1c0.5,2.3,0,4.7-0.5,7c-1.1,5.4-2.7,10.9-5.4,15.8c-1.1,1.9-2.4,4.1-4.1,5.4
							c-0.7,0.5-1.1,0.8-1.3,1.6c-0.2,0.7-0.2,1.5-0.1,2.2c0.6,4.5,5.4,6.8,9.3,7.9c4.2,1.3,8.5,2,12.9,2.5c5.5,0.7,11,0.9,16.5,0.5
							s11.1-1.3,16.3-3.5c2.2-0.9,4.7-2.1,6.5-3.8c0.8-0.8,1-2.3,1.1-3.4c0-1.2-0.3-2.3-0.9-3.3c-5.4-9-10.6-19.2-10-30
							c0-0.4,0-0.8,0.1-1.1c0-0.2,0-0.5,0-0.4c0-0.2-0.1-0.1,0.1-0.2c-0.1,0-0.1,0,0,0c0.9,0,1.6-0.8,1.7-1.7
							c0.1-1.7-1.7-2.8-3.1-3.2c-2.9-0.8-6.3-0.2-9.2,0.1c-4,0.4-7.9,0.7-11.9,0.9c-4.5,0.2-9.1,0-13.6,0.1
							c-2.4,0.1-6.7,0.3-6.1,3.8c0.1,0.9,1.3,1.4,2.1,1.2c1-0.3,1.3-1.2,1.2-2.1c0,0.3,0,0.5-0.2,0.8c0,0.1-0.2,0.1,0,0.1
							c0.3,0-0.2,0,0.1-0.1c0.2-0.1,0.5-0.1,0.7-0.2c1.3-0.2,2.6-0.2,4-0.2c3.9,0.1,7.8,0.1,11.7-0.1c3.5-0.2,6.9-0.5,10.4-0.8
							c2.6-0.2,5.2-0.6,7.7-0.6c0.7,0,1.4,0,2.1,0.2c0.6,0.2,0.6,0.2,1,0.4c0,0-0.3-0.1-0.1-0.1c0.2,0.1-0.1,0.3,0-0.1
							c0,0,0.2,0.5,0,0.1c0,0-0.1-0.2-0.1-0.3c0.6-0.6,1.1-1.1,1.7-1.7c-3.4,0.1-3.6,3.5-3.6,6.1c0,3.4,0.5,6.8,1.3,10.1
							c1.5,5.7,3.9,11.2,6.7,16.4c0.8,1.4,1.6,2.8,2.5,4.2c0.5,0.8,0.6,1.5,0.4,2.4c0,0.2-0.1,0.4-0.2,0.7s0.1,0.2,0-0.1
							c0-0.4,0.2-0.2-0.1-0.1c-0.5,0.2-1,0.7-1.4,1c-4.4,2.8-9.5,4.1-14.6,4.8c-10,1.3-20.6,0.5-30.4-2c-1.5-0.4-3-0.8-4.4-1.4
							c-0.3-0.1,0.3,0.1-0.1,0c-0.1-0.1-0.2-0.1-0.3-0.1c-0.8-0.4-1.5-0.8-2.2-1.3c-0.8-0.6-1.6-1.6-1.8-2.4c0-0.1-0.1-0.7-0.1-0.3
							c0-0.2,0-0.3,0-0.5s0.1-0.4,0-0.1c0-0.1,0-0.2,0.1-0.4c0.1-0.4,0.1-0.2,0,0c-0.2,0.3-0.6,0.6-0.1,0.3c0.3-0.2,0.6-0.4,0.8-0.6
							c1.9-1.6,3.4-3.9,4.6-6.1c2.7-5,4.4-10.6,5.6-16.1c0.5-2.4,1-5.1,0.7-7.6c-0.2-1.9-0.8-4-2.6-5c-0.5-0.3-0.9-0.3-1.4-0.4
							c-0.9-0.1-1.7,0.8-1.7,1.7C359.2,102.9,359.9,103.4,360.9,103.6z"/>
					</g>
					<g>
						<path d="M422.7,99.6c2.2-1.5,4.3-3.2,6.2-5.1c1.4-1.4,2.7-2.9,3.6-4.6c0.4-0.7,0.6-1.4,0.9-1.9c0-0.1,0.2-0.3,0,0
							c0.1-0.1,0.2-0.2,0.3-0.3c0.2-0.2-0.3,0.2,0.1-0.1c0.1-0.1,0.4-0.2,0.1-0.1c0.8-0.3,1.4-0.2,2.3,0.3c1,0.6,1.7,1.6,2.2,2.7
							c0.7,1.7,0.7,3.6,0.5,5.5c-0.3,2.6-0.8,5.2-1.5,7.8c-1,4.1-2.2,8.8-5.2,11.9c-1.5,1.6,0.9,4,2.4,2.4c3-3.1,4.5-7.6,5.6-11.7
							c0.8-2.8,1.3-5.7,1.8-8.6c0.4-2.5,0.6-4.9,0-7.3c-0.9-3.2-3.4-6.3-6.9-6.6c-1.4-0.1-2.8,0.3-3.8,1.3c-1.2,1.1-1.6,2.9-2.5,4.2
							c-2,2.8-5,5.2-7.7,7.1C419.3,97.9,420.9,100.9,422.7,99.6L422.7,99.6z"/>
					</g>
					<g>
						<path d="M361.4,100.1c-4.7-0.8-9.5-1.6-14.2-2.3c-1.3-0.2-2.7-0.4-4-0.5c-0.9-0.1-1.9-0.2-2.7,0c-2,0.6-1.7,2.5-0.8,3.8
							c0.8,1.1,1.2,1.9,0.9,3c-0.8,2.7-2.3,5.4-4.1,7.6c-1.1,1.3-2.3,2.5-3.9,3.2c-0.7,0.4-1.5,0.5-2.3,0.7
							c-0.2,0.1,0.5,0.1,0.3,0.1s-0.4-0.1-0.6-0.1c-0.4,0-0.8,0-1.1,0.2c-4.3,1.4-0.2,8.1,1.2,10.1c4.9,6.9,12.8,10.7,20.8,12.5
							c2.1,0.5,3-2.8,0.9-3.2c-8.3-1.8-16.8-6-20.6-13.9c-0.1-0.2-0.2-0.5-0.3-0.7c0.2,0.4-0.1-0.3-0.2-0.4
							c-0.1-0.4-0.3-0.8-0.4-1.2c0-0.1,0-0.3-0.1-0.4c-0.1-0.3-0.1,0.3,0,0.1c0.1-0.2-0.7,0.7-0.5,0.4c0,0.1,0.3,0.1,0,0
							c-0.4-0.1,0.7,0,0.8,0c4.9-0.7,8.5-4.7,10.8-8.8c1-1.8,1.9-3.7,2.4-5.7c0.3-1.3,0.1-2.5-0.4-3.7c-0.2-0.5-0.5-1-0.9-1.4
							c-0.1-0.2-0.3-0.5-0.4-0.6c-0.2-0.1,0,0,0,0c0.1,0,0,0.5,0.1,0.3c-0.1,0.3-0.2,0.6-0.2,0.8c-0.8,0.4-1,0.6-0.6,0.5
							c-0.1,0-0.1,0,0,0s0.2,0,0.3,0c0.3,0,0.5,0,0.8,0.1c0.8,0.1,1.7,0.2,2.5,0.3c2,0.3,4.2,0.6,6.3,0.9c3,0.5,6.1,1,9.1,1.5
							C362.6,103.7,363.5,100.5,361.4,100.1L361.4,100.1z"/>
					</g>
					<g>
						<path d="M341.5,98.3c0.7,0.6-0.1-0.1-0.3-0.3c-0.6-0.5-1.1-1-1.7-1.5c-1.5-1.4-3-2.8-4.4-4.4c-0.6-0.7-1.2-1.5-1.7-2.3
							c-0.4-0.7-0.7-1.5-1.1-2.3c-0.7-1.3-1.9-2.2-3.3-2.5c-3.3-0.6-6.3,1.8-7.6,4.7c-1,2-1.3,4.3-1.1,6.5c0.2,3,0.8,6.1,1.5,9
							c1.1,4.8,2.6,10.2,6,13.8c1.5,1.6,3.9-0.8,2.4-2.4c-2.5-2.7-3.7-6.7-4.6-10.2c-0.7-2.6-1.2-5.3-1.6-7.9
							c-0.3-2.1-0.6-4.2,0-6.3c0.4-1.2,1.1-2.5,2-3.2c0.5-0.4,1-0.6,1.3-0.7c0.1,0,0.2-0.1,0.3-0.1c0.5-0.1-0.3,0,0.2,0
							c0.1,0,0.2,0,0.3,0c0.1,0,0.2,0,0.3,0c-0.2,0-0.2,0-0.1,0s0.7,0.2,0.4,0.1c0.1,0.1,0.3,0.1,0.4,0.2c-0.2-0.2,0,0,0,0
							c0.4,0.3,0.5,0.7,0.8,1.5c0.8,1.7,2,3.3,3.2,4.7c2,2.3,4.4,4.5,6.8,6.4c0.7,0.6,1.9,0.1,2.3-0.6
							C342.6,99.7,342.2,98.8,341.5,98.3L341.5,98.3z"/>
					</g>
				</g>
			</g>
			<path class="st12" d="M340.2,98.3c0-11.3,9.1-20.4,20.4-20.4S381,87,381,98.3"/>
			<path class="st12" d="M359.9,76.7c0-11.3,9.1-20.4,20.4-20.4s20.4,9.1,20.4,20.4"/>
			<path class="st12" d="M381,98.3c0-11.3,9.1-20.4,20.4-20.4s20.4,9.1,20.4,20.4"/>
			<path d="M360.6,83.3c0,0.9-0.7,1.7-1.6,1.7s-1.6-0.7-1.6-1.7s0.7-1.7,1.6-1.7C359.9,81.6,360.6,82.4,360.6,83.3z"/>
			<path d="M363.6,88.1c0,0.4,0.3,0.8,0.8,0.8s0.8-0.3,0.8-0.8s-0.3-0.8-0.8-0.8S363.6,87.7,363.6,88.1z"/>
			<path d="M356.9,90.3c0,0.3,0.3,0.6,0.6,0.6c0.3,0,0.6-0.3,0.6-0.6s-0.3-0.6-0.6-0.6C357.1,89.7,356.9,89.9,356.9,90.3z"/>
			<path d="M368.4,95.9c0,0.2,0.1,0.3,0.3,0.3s0.3-0.2,0.3-0.3c0-0.2-0.1-0.3-0.3-0.3S368.4,95.7,368.4,95.9z"/>
			<path d="M349.2,91.3c0,0.3,0.2,0.5,0.5,0.5s0.5-0.2,0.5-0.5s-0.2-0.5-0.5-0.5S349.2,91.1,349.2,91.3z"/>
			<path d="M354.9,97.5c0,0.7,0.6,1.3,1.3,1.3c0.7,0,1.3-0.6,1.3-1.3s-0.6-1.3-1.3-1.3S354.9,96.8,354.9,97.5z"/>
			<circle cx="377" cy="62" r="1.2"/>
			<path d="M369.9,67.7c0,0.6,0.5,1.2,1.1,1.2s1.1-0.5,1.1-1.2s-0.5-1.2-1.1-1.2S369.9,67,369.9,67.7z"/>
			<path d="M385.7,70.4c0,0.6,0.5,1.1,1.1,1.1s1.1-0.5,1.1-1.1s-0.5-1.1-1.1-1.1S385.7,69.8,385.7,70.4z"/>
			<path d="M377.8,73.6c0,0.3,0.3,0.6,0.6,0.6s0.6-0.3,0.6-0.6s-0.3-0.6-0.6-0.6S377.8,73.3,377.8,73.6z"/>
			<path d="M382,80.2c0,0.7,0.6,1.3,1.3,1.3s1.3-0.6,1.3-1.3s-0.6-1.3-1.3-1.3C382.6,78.9,382,79.5,382,80.2z"/>
			<circle cx="368.7" cy="73.4" r="0.4"/>
			<path d="M391,73.1c0,0.9,0.7,1.6,1.5,1.6c0.9,0,1.5-0.7,1.5-1.6s-0.7-1.6-1.5-1.6S391,72.2,391,73.1z"/>
			<path d="M397.3,85.7c0,0.4,0.3,0.8,0.8,0.8s0.8-0.3,0.8-0.8c0-0.4-0.3-0.8-0.8-0.8C397.7,84.9,397.3,85.3,397.3,85.7z"/>
			<path d="M389.4,89.3c0,0.2,0.2,0.4,0.4,0.4s0.4-0.2,0.4-0.4s-0.2-0.4-0.4-0.4S389.4,89.1,389.4,89.3z"/>
			<path d="M400.6,91.7c0,0.5,0.4,0.9,0.9,0.9s0.9-0.4,0.9-0.9s-0.4-0.9-0.9-0.9S400.6,91.2,400.6,91.7z"/>
			<path d="M404.6,84.9c0,0.4,0.4,0.8,0.8,0.8s0.8-0.4,0.8-0.8s-0.4-0.8-0.8-0.8S404.6,84.4,404.6,84.9z"/>
			<path d="M408.8,91.7c0,0.5,0.4,0.9,0.9,0.9s0.9-0.4,0.9-0.9s-0.4-0.9-0.9-0.9S408.8,91.2,408.8,91.7z"/>
			<path d="M392.6,94.3c0,0.4,0.4,0.8,0.8,0.8s0.8-0.3,0.8-0.8s-0.4-0.8-0.8-0.8S392.6,93.8,392.6,94.3z"/>
		</g>
	</g>
	<g class="st0">
		<g class="st3">
			<text transform="matrix(1 0 0 1 318.6931 395.2988)" style="font-family:'ArialMT'; font-size:48.2038px;">Bakery</text>
			<g>
				<g>
					<path d="M417,268.9l-1.7,1.6c-7.4-7.6-15.8-4-15.9-4l-0.9-2.1C398.6,264.3,408.5,260.1,417,268.9z"/>
				</g>
				<g>
					<path d="M360.1,337.5c-0.1,0-10.6-2.5-12.4-14.5l2.3-0.3c1.5,10.4,10.2,12.5,10.6,12.5L360.1,337.5z"/>
				</g>
				<g>
					<path d="M430,318.1l-26.6,26.6c-1.4,1.4-3.2,2-5.1,1.7s-3.4-1.3-4.4-3c-2.1-3.7-5.1-6.7-8.8-8.7c-2.9,4-6.8,6.9-11.6,8.5
						c-8.1,2.8-17.1,1.3-23.5-3.9c-5.5-4.5-8.7-10.8-9-17.8c-0.3-6.4,1.9-12.8,6.2-17.5c-8.7-12-7.5-28.6,3.1-39.2s27.3-11.8,39.3-3
						c9.6-7.6,23.6-6.9,32.4,1.9c9.5,9.5,9.5,25,0,34.5c-0.5,0.5-1.2,1.1-1.8,1.6c2,3.7,5,6.6,8.6,8.6c1.6,0.9,2.7,2.5,3,4.4
						C432,314.9,431.3,316.7,430,318.1z M383.9,330.2l1.4,0.7c5.1,2.4,9,6,11.7,10.9c0.4,0.6,1,1.1,1.8,1.2s1.6-0.1,2.1-0.7
						l26.6-26.6c0.6-0.6,0.8-1.3,0.7-2.1c-0.1-0.8-0.5-1.4-1.2-1.8c-4.7-2.7-8.3-6.5-10.7-11.4l-0.6-1.3l1.2-0.9
						c1-0.7,1.9-1.5,2.6-2.2c8.1-8.1,8.1-21.4,0-29.6c-7.8-7.8-20.4-8.2-28.7-0.8l-1.1,1l-1.2-0.9c-10.7-8.6-26-7.8-35.8,1.9
						c-9.7,9.7-10.5,25-1.9,35.7l1,1.2l-1.1,1.1l0,0c-4.3,4.3-6.5,10.1-6.2,16c0.3,6,3.1,11.4,7.8,15.2c5.5,4.4,13.2,5.7,20.2,3.3
						c4.6-1.6,8.1-4.3,10.6-8.4L383.9,330.2z"/>
				</g>
				<g>
					<path d="M385.7,333.7l-2.7-2.3l1.3,1.1l-1.3-1.1c0-0.1,4.8-5.7,5.8-15.9l3.5,0.4C391.1,327.2,385.9,333.5,385.7,333.7z"/>
				</g>
				<g>
					<path d="M418.5,301.1c-0.1,0-12.3,5.2-18,16.7l-3.1-1.6c6.3-12.8,19.3-18.2,19.9-18.4L418.5,301.1z"/>
				</g>
				<g>
					<rect x="396.6" y="326.8" transform="matrix(0.7071 -0.7071 0.7071 0.7071 -117.9089 378.8407)" width="3.5" height="9.9"/>
				</g>
				<g>
					<rect x="405.4" y="317.9" transform="matrix(0.7071 -0.7071 0.7071 0.7071 -109.0791 382.4586)" width="3.5" height="9.9"/>
				</g>
				<g>
					<rect x="414.2" y="309.2" transform="matrix(0.7071 -0.7071 0.7071 0.7071 -100.3098 386.1139)" width="3.5" height="9.9"/>
				</g>
				<g>
					<path d="M359.2,308.2c-5.2-3.4-9.1-2.4-9.2-2.3l-1-3.4c0.2-0.1,5.5-1.5,12.1,2.8L359.2,308.2z"/>
				</g>
				<g>
					<path d="M391.7,275.5l-2.8,2.2c-4.5-5.8-1.1-13.9-0.9-14.2l3.2,1.4C391.2,264.9,388.5,271.4,391.7,275.5z"/>
				</g>
				<g>
					<path d="M352.7,292.5l-2.3,0.6c-0.2-0.6-4-14,6.4-22.9l1.5,1.8C349.2,279.9,352.6,292.4,352.7,292.5z"/>
				</g>
				<g>
					<circle cx="362.2" cy="267.5" r="1.6"/>
				</g>
				<g>
					<path d="M420.3,272.4c0.6,0.6,0.6,1.6,0,2.2s-1.6,0.6-2.2,0s-0.6-1.6,0-2.2C418.7,271.8,419.7,271.8,420.3,272.4z"/>
				</g>
				<g>
					<path d="M347.1,318.2c-0.1-0.9,0.4-1.7,1.3-1.8c0.9-0.1,1.7,0.4,1.8,1.3c0.1,0.9-0.4,1.7-1.3,1.8
						C348,319.6,347.2,319,347.1,318.2z"/>
				</g>
			</g>
			<text transform="matrix(1 0 0 1 322.5633 411.709)" class="st4" style="font-size:8.034px;">homemade cooking</text>
		</g>
		<polygon class="st13" points="316.8,396.3 300.9,396.3 307.6,403 300.7,409.9 312.6,409.9 312.6,399.9 316.8,399.9 		"/>
		<polyline class="st14" points="433,416.8 312.6,416.8 312.6,399.9 433,399.9 		"/>
		<polygon class="st3" points="312.2,399.5 316.8,396.3 316.8,399.5 		"/>
	</g>
	<g class="st0">
		<g class="st3">
			<g>
				<polygon class="st15" points="223.4,356.2 122,389.1 107.1,343.9 208.4,311.1 				"/>
				
					<text transform="matrix(0.9591 -0.3108 0.3139 0.9495 121.8005 369.3703)" style="font-family:'ArialMT'; font-size:40.3891px;">Baker</text>
				
					<text transform="matrix(0.9591 -0.3108 0.3139 0.9495 123.8575 381.1926)" style="font-family:'Poppins-Light'; font-size:7.4664px;">coffee &amp; bread</text>
			</g>
			<g>
				<g>
					<g>
						<g>
							<path d="M105.3,397.8c-1.3,0.4-5.3,1.2-9.9-2.5c-3.3,0.3-10.2-0.6-15.5-10.9c-2.2,1.7-4.3,3.6-6.3,5.8l0,0
								c-5.1,5.5-14.5,10.1-22.3,8.3c-3.6-0.8-8.3-3.3-10.5-10.6c-1.8-6-1.5-10.9,1-14.5c4.5-6.5,15-7.1,21.9-7.5
								c1.2-0.1,2.4-0.1,3.3-0.3c2.2-0.2,4.8-0.7,7.4-1.3c-0.9-11.4,3.7-15.6,6.3-17c1.7-6.8,6-7.5,6.2-7.5l137.9-44.7
								c0,0,3.9-2,9.4,2.6c3.3-0.3,9.1,1,14.8,10.3c1.5-1.3,3-2.7,4.4-4.2c5.1-5.5,14.4-10.1,22.4-8.3c3.6,0.8,8.3,3.3,10.5,10.6
								c1.8,6,1.5,10.9-1,14.5c-4.5,6.5-15,7.1-21.9,7.5c-1.2,0.1-2.4,0.1-3.3,0.3c-1,0.1-2.2,0.3-3.4,0.5c1.2,9.6-2.8,14.1-5.7,16
								c-1.8,7.1-6.9,8.1-7.2,8.2L187,371.4l-12.2,3.9l-13.5,4.4l0,0l-55.6,18C105.7,397.6,105.5,397.7,105.3,397.8z M80.9,380.3
								l0.7,1.5c4.8,10.5,10.8,11.3,14,10.8l0.6-0.1l0.5,0.4c4.5,3.8,7.9,2.3,8.1,2.3l58.3-18.9l10.9-3.5l11-3.6l1.1-0.4l56.9-18.4
								c0.3-0.1,4-0.9,5.3-6.7l0.1-0.6l0.5-0.3c2.4-1.4,6.3-5.3,4.8-14.9l-0.2-1.3l1.3-0.2c1.7-0.3,3.4-0.6,4.9-0.7
								c1-0.1,2.2-0.2,3.4-0.3c6.4-0.4,16-1,19.8-6.4c2-2.9,2.2-7,0.7-12.2c-1.5-4.9-4.4-7.8-8.5-8.8c-6-1.4-14.5,1.9-19.8,7.5
								c-1.9,2-3.9,3.9-5.9,5.5l-1.2,1l-0.8-1.4c-5.8-10.2-11.4-10.6-13.5-10.3l-0.6,0.1l-0.5-0.4c-4.2-3.8-6.9-2.6-7.1-2.5
								L87.4,342.4c-0.3,0.1-3.2,0.7-4.3,6.1l-0.1,0.7l-0.6,0.3c-2,0.9-6.5,4.1-5.2,15.7l0.1,1.1l-1.1,0.3c-3.2,0.8-6.3,1.4-8.9,1.6
								c-1,0.1-2.2,0.2-3.4,0.3c-6.4,0.4-16,1-19.8,6.4c-2,2.9-2.2,7-0.7,12.2c1.5,4.9,4.3,7.8,8.5,8.8c6.9,1.6,15.2-2.6,19.8-7.5
								l0,0c2.5-2.7,5.3-5.1,8.1-7.1L80.9,380.3z"/>
						</g>
					</g>
				</g>
				<g>
					<path d="M94.6,394.5c-15-28.1-14.2-45.6-14.1-46.4l2.7,0.1c0,0.2-0.7,17.6,13.8,45L94.6,394.5z"/>
				</g>
				<g>
					<path d="M79.1,382.9c-4.5-9.6-4.7-17.2-4.7-17.5l2.7-0.1c0,0.1,0.2,7.5,4.4,16.5L79.1,382.9z"/>
				</g>
				<g>
					<path d="M250.7,344.8l-2.7,0.4c-4.6-30.8-15.4-45.1-15.5-45.3l2.1-1.6C235.2,298.9,246,313.4,250.7,344.8z"/>
				</g>
				<g>
					<path d="M256.3,326.7l-2.6,0.5c-2-9.8-5.8-15.8-5.9-15.9l2.3-1.4C250.2,310.2,254.2,316.4,256.3,326.7z"/>
				</g>
				<g>
					<path d="M46.6,383.2l-2.6,0.6c0-0.2-1-4.1,1.4-7.7c1.8-2.7,4.9-4.5,9.2-5.3l0.5,2.6c-3.6,0.6-6.1,2-7.5,4.1
						C45.9,380.1,46.5,383.1,46.6,383.2z"/>
				</g>
				<g>
					<path d="M59.7,371.1c0.3,0.9-0.2,1.8-1.1,2.1s-1.8-0.2-2.1-1.1s0.2-1.8,1.1-2.1S59.4,370.2,59.7,371.1z"/>
				</g>
				<g>
					<path d="M274.4,322c-4.5,1.4-9.2,1.6-9.5,1.6l-0.1-2.7c3.1-0.1,11.8-1.1,14.1-4.9l2.3,1.4C279.8,319.7,277.1,321.1,274.4,322z"
						/>
				</g>
				<g>
					<path d="M282.7,312.9c0.3,0.8-0.2,1.7-1,2s-1.7-0.2-2-1s0.2-1.7,1-2S282.4,312,282.7,312.9z"/>
				</g>
				<g>
					<path d="M95.7,381c-12-28.7-6.4-34.8-5.7-35.4l1.8,2l-0.9-1l0.9,0.9c-0.1,0-4.8,5.7,6.4,32.5L95.7,381z"/>
				</g>
				<g>
					<path d="M95.4,343.8c0.2,0.7-0.2,1.5-0.9,1.8c-0.7,0.2-1.5-0.2-1.8-0.9c-0.2-0.7,0.2-1.5,0.9-1.8S95.2,343.1,95.4,343.8z"/>
				</g>
				<g>
					<path d="M240.7,346.9l-1.8-2l0.9,1l-0.9-0.9c0.1,0,4.8-5.7-6.4-32.5l2.5-1C246.9,340.2,241.3,346.3,240.7,346.9z"/>
				</g>
				<g>
					<path d="M235.2,348.6c-0.2-0.7,0.2-1.5,0.9-1.8c0.7-0.2,1.5,0.2,1.8,0.9c0.2,0.7-0.2,1.5-0.9,1.8S235.4,349.4,235.2,348.6z"/>
				</g>
			</g>
		</g>
		<path class="st16" d="M234.2,355.6c-5.3,34.9-35.7,61.6-72.4,61.6c-20.9,0-39.8-8.7-53.2-22.7"/>
		<path class="st16" d="M88.8,340.5c2.2-38,34.1-68.2,73-68.2c22.6,0,42.7,10.1,56.1,26"/>
		<path class="st17" d="M102.8,325.8c0,0,8.8-29.4,40.4-40.9"/>
		<path class="st3" d="M149.4,283.3c0,0.9-0.7,1.6-1.6,1.6s-1.6-0.7-1.6-1.6s0.7-1.6,1.6-1.6S149.4,282.4,149.4,283.3z"/>
		<g class="st3">
			<path class="st18" d="M216.4,377.4c0,0-15.7,26.4-49.1,30.1"/>
			<path d="M160.8,407.6c0.2-0.9,1.1-1.4,2-1.2c0.9,0.2,1.4,1.1,1.2,2s-1.1,1.4-2,1.2C161.1,409.3,160.6,408.4,160.8,407.6z"/>
		</g>
	</g>
</g>
<g id="DESIGNED_BY_FREEPIK" class="st0">
	<g class="st3">
		<g id="XMLID_319_">
			<g id="XMLID_338_">
				<path id="XMLID_346_" class="st19" d="M260.1,465.5c-0.4,0.4-0.8,0.9-1.1,1.5l-0.5-0.2c-0.1-0.3-0.4-0.5-0.7-0.5
					c-0.3,0-0.6,0.3-0.5,0.7c0,0.3,0.3,0.6,0.7,0.5c0.1,0,0.1,0,0.2,0l0.5,0.2c-0.3,0.5-0.4,1.1-0.5,1.7l0.8,0.1
					c0.2-1.3,0.9-2.5,1.8-3.5L260.1,465.5z"/>
				<path id="XMLID_345_" class="st19" d="M265.6,463.2c-0.2,0-0.3,0-0.5,0l-0.1-0.6c0.2-0.1,0.3-0.4,0.3-0.6c0-0.4-0.4-0.7-0.8-0.6
					c-0.4,0-0.7,0.4-0.6,0.8c0,0.3,0.2,0.5,0.4,0.6l0.1,0.6c-0.7,0.1-1.4,0.3-2.1,0.6l0.3,0.7c0.9-0.5,1.9-0.7,3-0.7
					c0.5,0,1,0,1.5,0.2l0.2-0.7C266.7,463.2,266.1,463.2,265.6,463.2z"/>
				<path id="XMLID_344_" class="st19" d="M272.2,465.7c0.3,0,0.6-0.3,0.5-0.7c0-0.3-0.3-0.6-0.7-0.5c-0.3,0-0.5,0.3-0.5,0.6
					l-0.4,0.4c-0.4-0.4-0.9-0.8-1.4-1.1l-0.4,0.6c1.1,0.7,2,1.7,2.6,2.9l0.7-0.3c-0.3-0.5-0.6-1.1-0.9-1.5L272.2,465.7
					C272.1,465.7,272.1,465.7,272.2,465.7z"/>
				<path id="XMLID_343_" class="st19" d="M265,473.4c-0.4,0-0.8,0-1.2,0c-0.9,0-1.7-0.1-2.5-0.2c-0.4-0.1-0.9-0.1-1.3-0.3
					c1,1.9,3.1,3.1,5.4,3.1c2.9,0,5.3-1.9,6-4.5c-0.7,0.5-1.5,0.8-2.5,1.1C267.8,473,266.5,473.3,265,473.4z"/>
				<path id="XMLID_339_" class="st19" d="M265.6,464.7c-3.4,0-6.1,2.7-6.1,5.9c0,0.4,0,0.9,0.1,1.3c0.7,0.5,2.7,0.9,5.4,0.7
					c2.9-0.2,5.3-1,6.7-2.2c0-0.2,0-0.4,0-0.6C271.2,466.9,268.6,464.7,265.6,464.7z M263.4,471.2c-1,0-1.9-0.8-1.9-1.9
					c0-1,0.8-1.9,1.9-1.9c1,0,1.9,0.8,1.9,1.9C265.3,470.4,264.5,471.2,263.4,471.2z M268.2,470.3c-0.8,0-1.4-0.6-1.4-1.4
					s0.6-1.4,1.4-1.4s1.4,0.6,1.4,1.4S268.9,470.3,268.2,470.3z"/>
			</g>
			<path id="XMLID_336_" class="st19" d="M281.6,466.5c-0.3-0.1-0.8-0.3-1.4-0.2c-0.5,0.1-0.8,0.3-0.8,1v0.9h2.2v1.7h-2.2v5.5h-1.9
				v-5.5h-1.3v-1.7h1.3v-0.9c0-1.7,0.9-2.8,2.6-2.8c0.6,0,1.2,0.1,1.6,0.3L281.6,466.5z"/>
			<path id="XMLID_334_" class="st19" d="M286.3,469.9c-0.2,0-0.4,0-0.5,0c-0.9,0-1.5,0.5-1.5,1.6v3.9h-1.9v-7.2h1.9v0.8
				c0.5-0.7,1.1-1,2-1c0.4,0,0.9,0.1,1.1,0.3L286.3,469.9z"/>
			<path id="XMLID_331_" class="st19" d="M294,471.8c0,0.2,0,0.5,0,0.6h-5.1c0.2,1,0.9,1.5,1.8,1.5c0.6,0,1.3-0.3,1.8-0.7l1.1,1.2
				c-0.8,0.8-1.9,1.1-3.1,1.1c-2.2,0-3.7-1.5-3.7-3.8s1.5-3.8,3.6-3.8C292.5,468,294,469.5,294,471.8z M288.9,471.1h3.2
				c-0.2-0.9-0.7-1.4-1.6-1.4C289.5,469.6,289,470.2,288.9,471.1z"/>
			<path id="XMLID_328_" class="st19" d="M301.6,471.8c0,0.2,0,0.5,0,0.6h-5.1c0.2,1,0.9,1.5,1.8,1.5c0.6,0,1.3-0.3,1.8-0.7l1.1,1.2
				c-0.8,0.8-1.9,1.1-3.1,1.1c-2.2,0-3.7-1.5-3.7-3.8s1.5-3.8,3.6-3.8C300.2,468,301.6,469.5,301.6,471.8z M296.5,471.1h3.2
				c-0.2-0.9-0.7-1.4-1.6-1.4C297.2,469.6,296.7,470.2,296.5,471.1z"/>
			<path id="XMLID_325_" class="st19" d="M310,471.8c0,2.1-1.5,3.8-3.5,3.8c-1,0-1.6-0.4-2.1-0.9v3.7h-1.9v-10.1h1.9v0.8
				c0.5-0.6,1.1-1,2.1-1C308.5,468,310,469.6,310,471.8z M304.3,471.8c0,1.1,0.8,2,1.8,2c1.1,0,1.9-0.9,1.9-2s-0.7-2-1.9-2
				C305,469.8,304.3,470.6,304.3,471.8z"/>
			<path id="XMLID_322_" class="st19" d="M313.1,465.8c0,0.7-0.5,1.2-1.2,1.2s-1.2-0.5-1.2-1.2s0.5-1.2,1.2-1.2
				C312.5,464.6,313.1,465.1,313.1,465.8z M312.8,475.4h-1.9v-7.2h1.9V475.4z"/>
			<path id="XMLID_320_" class="st19" d="M316,470.7l2.7-2.5h2.4l-3.5,3.4l3.5,3.8h-2.4l-2.7-2.9v2.9h-1.9v-10.7h1.9V470.7
				L316,470.7z"/>
		</g>
		<g>
			<path class="st19" d="M184.4,475.3v-1c-0.5,0.7-1.4,1.2-2.4,1.2c-1.9,0-3.1-1.4-3.1-3.7c0-2.3,1.3-3.7,3.1-3.7
				c0.9,0,1.8,0.5,2.4,1.3v-3.8h1.1v9.8L184.4,475.3L184.4,475.3z M184.4,473.4v-3.2c-0.4-0.6-1.2-1.1-2.1-1.1
				c-1.4,0-2.3,1.2-2.3,2.7c0,1.6,0.9,2.7,2.3,2.7C183.2,474.5,184,474,184.4,473.4z"/>
			<path class="st19" d="M186.9,471.7c0-2,1.5-3.7,3.5-3.7c2.1,0,3.4,1.7,3.4,3.8v0.3h-5.7c0.1,1.3,1,2.5,2.6,2.5
				c0.8,0,1.6-0.3,2.2-0.9l0.5,0.7c-0.7,0.7-1.6,1.1-2.8,1.1C188.4,475.5,186.9,474,186.9,471.7z M190.4,469c-1.5,0-2.3,1.3-2.3,2.4
				h4.6C192.7,470.3,192,469,190.4,469z"/>
			<path class="st19" d="M194.6,474.4l0.6-0.8c0.5,0.5,1.4,1,2.3,1c1.1,0,1.7-0.5,1.7-1.2c0-1.7-4.4-0.7-4.4-3.3c0-1.1,0.9-2,2.6-2
				c1.2,0,2.1,0.5,2.6,1l-0.5,0.8c-0.4-0.5-1.2-0.9-2.1-0.9c-1,0-1.6,0.5-1.6,1.1c0,1.5,4.4,0.5,4.4,3.3c0,1.2-0.9,2.1-2.8,2.1
				C196.3,475.5,195.3,475.1,194.6,474.4z"/>
			<path class="st19" d="M201.5,466.5c0-0.4,0.3-0.8,0.7-0.8s0.8,0.3,0.8,0.8s-0.3,0.7-0.8,0.7C201.8,467.2,201.5,466.9,201.5,466.5
				z M201.7,475.3v-7.1h1.1v7.1H201.7z"/>
			<path class="st19" d="M204.6,477.1l0.6-0.8c0.6,0.7,1.3,1,2.3,1c1.2,0,2.3-0.6,2.3-2.1v-1c-0.5,0.7-1.4,1.3-2.4,1.3
				c-1.9,0-3.1-1.4-3.1-3.7c0-2.3,1.3-3.7,3.1-3.7c0.9,0,1.8,0.5,2.4,1.3v-1.1h1.1v6.9c0,2.3-1.6,3.1-3.4,3.1
				C206.2,478.2,205.4,477.9,204.6,477.1z M209.7,473.3v-3.1c-0.4-0.6-1.2-1.1-2.1-1.1c-1.4,0-2.3,1.1-2.3,2.7
				c0,1.5,0.9,2.7,2.3,2.7C208.5,474.4,209.3,473.9,209.7,473.3z"/>
			<path class="st19" d="M217.4,475.3v-4.6c0-1.2-0.6-1.6-1.6-1.6c-0.9,0-1.7,0.5-2.1,1.1v5.2h-1.1v-7.1h1.1v1
				c0.5-0.6,1.5-1.2,2.5-1.2c1.5,0,2.3,0.8,2.3,2.3v5L217.4,475.3L217.4,475.3z"/>
			<path class="st19" d="M219.9,471.7c0-2,1.5-3.7,3.5-3.7c2.1,0,3.4,1.7,3.4,3.8v0.3h-5.7c0.1,1.3,1,2.5,2.6,2.5
				c0.8,0,1.6-0.3,2.2-0.9l0.5,0.7c-0.7,0.7-1.7,1.1-2.8,1.1C221.4,475.5,219.9,474,219.9,471.7z M223.4,469c-1.5,0-2.3,1.3-2.3,2.4
				h4.6C225.7,470.3,225,469,223.4,469z"/>
			<path class="st19" d="M233.4,475.3v-1c-0.5,0.7-1.4,1.2-2.4,1.2c-1.9,0-3.1-1.4-3.1-3.7c0-2.3,1.3-3.7,3.1-3.7
				c0.9,0,1.8,0.5,2.4,1.3v-3.8h1.1v9.8L233.4,475.3L233.4,475.3z M233.4,473.4v-3.2c-0.4-0.6-1.3-1.1-2.1-1.1
				c-1.4,0-2.3,1.2-2.3,2.7c0,1.6,0.9,2.7,2.3,2.7C232.1,474.5,232.9,474,233.4,473.4z"/>
			<path class="st19" d="M239.7,475.3v-9.8h1.1v3.8c0.6-0.8,1.4-1.3,2.4-1.3c1.9,0,3.1,1.5,3.1,3.7c0,2.3-1.3,3.7-3.1,3.7
				c-1,0-1.9-0.5-2.4-1.2v1L239.7,475.3L239.7,475.3z M242.9,474.5c1.4,0,2.3-1.2,2.3-2.7c0-1.6-0.9-2.7-2.3-2.7
				c-0.9,0-1.7,0.5-2.1,1.1v3.2C241.2,474,242,474.5,242.9,474.5z"/>
			<path class="st19" d="M247.5,477.1c0.2,0.1,0.4,0.1,0.6,0.1c0.5,0,0.8-0.2,1.1-0.8l0.5-1.1l-3-7.1h1.2l2.4,5.8l2.3-5.8h1.2
				l-3.5,8.5c-0.4,1-1.1,1.4-2.1,1.4c-0.2,0-0.6,0-0.8-0.1L247.5,477.1z"/>
		</g>
	</g>
</g>
<g>
	<path d="M351.4,106.4l13.5-0.3c3.3,0,5,0.2,5,0.7c0,1.2-6.8,2.3-20.3,3.2c-8.6,16.9-12.9,28.4-12.9,34.5c0,4.3,1.3,6.4,4,6.4
		c1,0,2.3-0.6,3.8-1.9c1.5-1.3,2.5-1.9,2.8-1.9s0.5,0.2,0.5,0.7c-0.5,1.7-1.9,3.1-4.2,4.2s-4.4,1.7-6,1.7s-2.9-0.1-3.8-0.3
		c-2.2-0.8-3.3-3.5-3.3-8.1c0-9.4,3.6-21.3,10.7-35.7l-16.7,0.4c-12.4,12.1-24.9,22.8-37.4,32c-18.7,13.6-33.4,20.4-43.9,20.4
		c-0.6,0-1.3,0-1.9-0.1c-14.3-1.2-21.4-8.5-21.4-22c0-8,2.5-16.4,7.5-25.3c6.7-11.9,15.8-22,27.4-30.4c11.6-8.4,22-12.6,31.1-12.6
		s13.8,3.4,13.8,10.1c0,4.5-1.4,9.6-4.2,15.2c-2.8,5.6-5.6,9.1-8.5,10.6c-0.3,0.1-0.6,0.1-0.9,0.1s-0.5-0.1-0.5-0.3l4.6-7.5
		c3.1-4.9,4.7-9.2,4.7-12.9c0-3.7-0.8-6.7-2.4-9s-4.2-3.4-7.7-3.4c-7.2,0-15.9,4-25.9,12.1c-10.1,8.1-17.7,18-22.9,29.7
		c-5.2,11.8-7.9,20.9-7.9,27.5c0,9.9,5,14.9,15.2,14.9c9.6,0,22.7-6.2,39.2-18.6c7.3-5.5,19.2-15.8,35.7-31c-3.2,0.2-6.3,0.5-9,1
		c-5.9,1.1-8.7,0.9-8.3-0.6c0.4-3.4,2.1-5.1,5.3-5.1c6.1,0.7,11.3,1.1,15.4,1.1c8-7.3,19.9-19.3,35.7-36
		c10.7-11.2,17.1-16.8,19.5-16.8c1,0,1.5,0.8,1.5,2.4c0,1.6-0.4,4-1.3,7.4c-0.8,3.3-1.8,5.4-2.8,6.1c-2.1,1.5-4.1,3.5-6,6
		s-4.5,7.3-7.9,14.3C356.8,96.4,353.8,102.1,351.4,106.4z M362.5,72.5L327,105.9h8.2c1.9,0.1,4.4,0.1,7.2,0.1
		C345.1,100.7,351.8,89.5,362.5,72.5z"/>
	<path d="M428.1,144.5c-6.3,0-9.5-2.9-9.5-8.8c0-3.3,1.5-7.9,4.4-13.7c3-5.8,6.1-10.7,9.3-14.7c-5.7,2.8-12.4,7.8-19.9,15.1
		s-12.7,14.9-15.7,22.9c-0.5,0.7-1.3,1.1-2.4,1.1c-2.2,0-3.3-1.3-3.3-3.8c0.9-5.1,3-10.9,6.3-17.5c1-2.1,4-8.3,9-18.6
		c-7.2,4.7-13.4,9.8-18.4,15.2c-5.1,5.4-9.7,10.9-14,16.3c-4.3,5.5-6.7,8.2-7.3,8.2c-1.2,0-2.2-0.6-3.1-1.7
		c-0.9-1.1-1.3-2.2-1.3-3.3c0-1.7,2.4-7.8,7.2-18.3l-8.3,8.8c-2,2-3.3,3.1-3.8,3.1s-0.8-0.3-0.8-0.9c0-0.6,0.4-1.3,1.1-2
		c3.4-3.4,6.5-6.9,9.2-10.3s7.1-9.5,13.3-18.3c1-1.4,2.5-2.1,4.3-2.1c1.9,0,2.8,0.9,2.8,2.6c0,0.6-2.5,5.2-7.4,13.6
		s-7.6,13.6-8.2,15.8c3.8-4.2,9.5-9.8,17.1-16.8c11.4-10.6,18.9-15.8,22.5-15.8c1.1,0,2.1,0.3,3.1,1c0.9,0.6,1.4,1.4,1.4,2.2
		c0,0.8-1.8,4.3-5.4,10.5c-3.5,6.4-5.5,10.2-5.8,11.4c10.3-8.6,15.4-13,15.4-13.1c8.7-6.8,15-10.1,18.8-10.1c1.1,0,2.2,0.3,3.1,1
		c1,0.7,1.5,1.5,1.5,2.4c0,0.2-3,4.1-9,11.7s-9.4,13.9-10.1,18.8c-0.2,1.7,0.1,2.9,1,3.8s2.3,1.3,4.5,1.3s5.4-1.5,9.6-4.5
		s8.5-7.1,12.9-12.2c1.7-1.9,2.8-2.8,3.4-2.8s0.9,0.2,0.9,0.7c0,0.6-0.4,1.4-1.3,2.2c-4.5,5.5-9.4,10.1-14.7,14
		C435.2,142.6,431.1,144.5,428.1,144.5z"/>
	<path d="M500.5,138.6c0,2.2-0.7,4-2.1,5.4s-3.2,2.1-5.4,2.1h-35V39.9h34.8c2.2,0,4,0.7,5.4,2.1c1.4,1.4,2.1,3.2,2.1,5.4V79
		c0,2.8-1.3,5.2-3.8,7.1c-2.5,1.5-5,3-7.5,4.5l8,5.2c2.4,1.4,3.5,3.7,3.5,6.8V138.6z M490.7,80.3v-32h-23.3v38.3h13.9L490.7,80.3z
		 M491,137.8v-36.7l-9.6-6.2h-14v43H491V137.8z"/>
	<path d="M553.2,146.2h-8.9v-1.8c-3.6,0.5-7.1,1-10.7,1.4c-4.4,0.5-8,0.8-10.7,0.8c-4.9,0-7.4-2.4-7.4-7.3v-24.1
		c0-5.1,2.6-7.6,7.7-7.6h21.2V87.7H525V99h-8.8V87.8c0-5.1,2.5-7.7,7.6-7.7h21.7c5.1,0,7.6,2.6,7.6,7.7v58.4H553.2z M544.4,137.9
		v-23.3h-20.2v23.8L544.4,137.9z"/>
	<path d="M605,146.2h-9.8L577,112.5v33.7h-9V39.9h9v67.5l17-27.3h9.7v0.3l-19.2,29.2L605,146.2z"/>
	<path d="M651.5,138.5c0,5.1-2.5,7.7-7.6,7.7h-21.7c-5.1,0-7.6-2.6-7.6-7.7V87.8c0-5.1,2.5-7.7,7.6-7.7h21.7c5.1,0,7.6,2.6,7.6,7.7
		v23.8l-3.1,3.2h-25.1v23.9h19.4v-12.1h8.8L651.5,138.5L651.5,138.5z M642.7,107.5V87.7h-19.4v19.9L642.7,107.5L642.7,107.5z"/>
	<path d="M700.9,101.8H692V88.2l-16.6,0.5v57.4h-9v-66h9V82c3-0.5,6-0.9,9-1.4c3.6-0.5,6.6-0.8,9-0.8c5,0,7.5,2.5,7.5,7.4V101.8z"/>
	<path d="M749.6,80.1l-15.9,65.5l-6.6,25.6h-8.9l6.7-25.6l-16.3-65.5h9.3l11.3,52l11.4-52C740.6,80.1,749.6,80.1,749.6,80.1z"/>
</g>
</svg>
